<svg version="1.1" id="Layer_1" xmlns="http://www.w3.org/2000/svg" xmlns:xlink="http://www.w3.org/1999/xlink" x="0px" y="0px"
	 width="100%" viewBox="0 0 1286 462" enable-background="new 0 0 1286 462" xml:space="preserve">
<path fill="#000000" opacity="1.000000" stroke="none" 
	d="
M987.000000,463.000000 
	C658.000000,463.000000 329.500031,463.000000 1.000044,463.000000 
	C1.000029,309.000031 1.000029,155.000061 1.000015,1.000065 
	C429.666626,1.000043 858.333252,1.000043 1287.000000,1.000022 
	C1287.000000,154.999939 1287.000000,308.999878 1287.000000,462.999908 
	C1187.166626,463.000000 1087.333374,463.000000 987.000000,463.000000 
M313.382019,323.771606 
	C315.324951,324.516479 317.228241,325.741974 319.219086,325.906067 
	C323.357666,326.247284 327.542786,326.048523 331.708588,326.031342 
	C340.394562,325.995483 340.972412,325.434967 340.985168,316.557037 
	C341.012939,297.226776 340.990906,277.896423 341.007996,258.566132 
	C341.009460,256.894531 341.149841,255.223068 341.225708,253.551529 
	C344.607971,260.264374 347.311127,266.860321 349.834625,273.524323 
	C354.951904,287.038055 360.308533,300.474762 364.934265,314.156982 
	C369.271576,326.986145 367.406128,326.056519 383.670013,326.008453 
	C383.836609,326.007965 384.003876,325.988831 384.169708,325.998352 
	C388.259430,326.233154 390.620789,324.228760 391.984924,320.444061 
	C399.365234,299.967804 406.815674,279.516693 414.311646,259.082458 
	C415.023163,257.142883 416.217346,255.380386 417.187439,253.535660 
	C418.004761,255.726074 418.004395,257.699677 418.004883,259.673279 
	C418.009735,279.170197 417.976685,298.667267 418.041412,318.164001 
	C418.062592,324.544098 419.392578,325.865845 425.612640,325.994812 
	C430.276031,326.091461 434.943481,325.975128 439.609100,325.984741 
	C443.912354,325.993622 446.048553,324.006775 445.974487,319.573578 
	C445.879883,313.909821 445.991547,308.242798 445.991608,302.577179 
	C445.991882,269.415741 446.007812,236.254242 445.963074,203.092850 
	C445.953888,196.286499 444.784210,195.111542 438.176758,195.024765 
	C431.345795,194.935043 424.510986,195.102036 417.681122,194.977112 
	C413.638458,194.903168 411.089478,196.588455 409.678497,200.365906 
	C402.698578,219.052338 395.652100,237.713852 388.651703,256.392670 
	C385.637451,264.435364 382.677856,272.498596 379.628510,280.727753 
	C374.308044,267.134247 369.023956,253.882721 363.933105,240.557358 
	C358.776276,227.059357 353.803711,213.490921 348.765991,199.947525 
	C347.505829,196.559708 345.122528,194.989090 341.500305,195.017609 
	C333.835663,195.077957 326.159668,194.811768 318.511780,195.174393 
	C316.329346,195.277847 314.227570,197.082367 312.001007,199.020615 
	C311.971222,238.645966 311.928375,278.271332 311.954712,317.896637 
	C311.955902,319.670685 312.585693,321.444305 313.382019,323.771606 
M696.333374,100.965485 
	C700.209290,97.612000 705.032043,94.892159 707.780823,90.784424 
	C715.568237,79.146790 716.432556,66.460678 713.230713,52.690010 
	C709.468445,36.509266 692.295105,24.023092 674.976807,24.020731 
	C657.484924,24.018347 639.992920,23.981441 622.501160,24.028183 
	C615.883911,24.045864 615.067383,24.895576 615.025085,31.601536 
	C614.963074,41.429962 615.000854,51.259037 615.000549,61.087833 
	C614.999817,88.908348 614.992615,116.728874 615.007019,144.549377 
	C615.011780,153.720963 615.291321,153.974228 624.649963,153.995285 
	C628.814697,154.004669 632.986328,153.833221 637.142273,154.021057 
	C642.027771,154.241882 644.095276,152.173019 644.025146,147.243301 
	C643.870972,136.417282 643.963806,125.587265 644.008301,114.759102 
	C644.037842,107.569656 646.141724,105.697174 653.170837,107.319199 
	C655.160522,107.778336 657.280701,109.547119 658.468384,111.304871 
	C666.753662,123.566574 674.843628,135.961136 682.914795,148.366089 
	C684.910645,151.433640 687.045654,153.980423 691.124695,153.951279 
	C698.620300,153.897751 706.120544,154.087219 713.611206,153.887253 
	C718.711792,153.751129 719.809998,151.416046 716.943481,147.120453 
	C712.330383,140.207581 707.559875,133.399918 702.881104,126.530624 
	C698.766541,120.489571 694.827515,114.322754 690.539001,108.408653 
	C687.935242,104.817825 689.664917,103.413773 692.859253,102.302628 
	C693.802124,101.974655 694.745605,101.648193 696.333374,100.965485 
M585.479492,287.863770 
	C586.979736,292.062744 588.451477,296.272186 589.985352,300.458832 
	C595.278198,314.905731 607.128723,322.399231 620.805542,325.436035 
	C634.300110,328.432312 648.310120,328.701508 662.091187,323.726929 
	C680.239563,317.175873 691.169800,303.794739 692.552673,285.899200 
	C694.740295,257.587982 693.636536,229.021225 693.876648,200.562195 
	C693.907837,196.857864 691.690002,195.146179 688.149231,195.085449 
	C683.320496,195.002594 678.490051,194.987930 673.660400,194.993866 
	C664.286438,195.005386 664.014038,195.262436 664.006836,204.430664 
	C663.990295,225.583588 664.100525,246.737396 663.918945,267.888794 
	C663.879333,272.500580 663.622192,277.395721 662.050537,281.636017 
	C660.142334,286.784088 657.731750,292.524536 653.766541,295.968445 
	C645.669434,303.001038 629.165466,300.867737 621.686646,293.108307 
	C616.318604,287.538818 615.031799,280.612946 615.016235,273.296722 
	C614.966370,249.812088 615.019897,226.327194 614.955444,202.842621 
	C614.937683,196.391022 613.665955,195.136505 607.413635,195.027283 
	C601.918945,194.931290 596.420105,194.934464 590.925171,195.024429 
	C584.974731,195.121857 584.087891,196.029633 584.034241,202.164917 
	C583.958496,210.825333 583.875366,219.489166 584.029114,228.147385 
	C584.377686,247.773178 584.869080,267.396423 585.479492,287.863770 
M267.024475,147.200226 
	C266.692444,152.183838 269.247925,154.029388 273.985138,154.000504 
	C287.315521,153.919205 300.646820,153.995728 313.977753,153.997009 
	C326.142242,153.998184 338.307556,153.896057 350.470764,154.017517 
	C355.167023,154.064407 357.185608,152.053619 357.001862,147.408112 
	C356.857086,143.748154 357.001801,140.077301 356.989624,136.411407 
	C356.959961,127.492264 356.515381,127.023994 347.718231,127.010071 
	C333.054169,126.986847 318.389954,127.031487 303.726044,126.979851 
	C296.799286,126.955467 296.101074,126.174606 296.006927,119.118591 
	C295.989136,117.785698 295.993439,116.452408 295.998749,115.119339 
	C296.059998,99.730911 294.633698,101.030373 309.876160,100.996910 
	C321.540680,100.971298 333.205322,100.990311 344.869781,100.953773 
	C348.237061,100.943222 351.562988,100.378784 351.777618,96.172714 
	C352.057312,90.691673 352.202972,85.153885 351.673248,79.711899 
	C351.514618,78.082359 349.119659,76.303528 347.346100,75.320267 
	C346.047180,74.600143 344.089447,75.017426 342.425262,75.015190 
	C330.094086,74.998650 317.762909,75.016739 305.431763,74.998291 
	C296.385590,74.984756 296.039734,74.632645 296.001099,65.821075 
	C295.991577,63.654831 295.992218,61.488483 296.000641,59.322227 
	C296.035400,50.382553 296.381989,50.014896 305.289032,50.002289 
	C319.786469,49.981766 334.283997,50.018562 348.781372,49.979443 
	C356.327393,49.959080 356.926331,49.305393 356.986023,41.596848 
	C357.010529,38.430931 357.014313,35.264427 356.983734,32.098610 
	C356.912903,24.762503 356.245148,24.030191 348.979889,24.019911 
	C324.817505,23.985718 300.655060,23.989677 276.492615,24.012491 
	C267.521393,24.020960 267.009277,24.565475 267.007355,33.790752 
	C266.999664,71.284172 267.008698,108.777596 267.024475,147.200226 
M148.007202,143.397308 
	C148.007263,141.564697 148.010483,139.732071 148.006851,137.899460 
	C147.985931,127.319939 147.687576,127.016319 136.994415,127.005463 
	C122.665230,126.990913 108.335770,127.039238 94.006950,126.963654 
	C88.006836,126.932007 87.144516,125.972137 87.025711,119.894592 
	C86.960602,116.563423 86.989723,113.230011 87.005737,109.897751 
	C87.045944,101.530884 87.516884,101.025253 95.702492,101.003838 
	C109.031883,100.968956 122.361832,101.040070 135.690613,100.940727 
	C141.423340,100.897995 142.762299,99.494652 142.958542,93.836708 
	C143.073990,90.508064 143.021133,87.172691 143.004974,83.840538 
	C142.964615,75.513824 142.510345,75.034317 134.248917,75.014160 
	C120.752884,74.981224 107.256752,74.987785 93.760658,74.988281 
	C90.355972,74.988403 87.193222,74.583214 87.119690,70.152893 
	C87.034004,64.990929 87.056686,59.825432 87.137466,54.663113 
	C87.185318,51.605434 88.999863,50.188751 91.946693,50.089710 
	C93.611450,50.033760 95.277824,50.001347 96.943489,50.000317 
	C111.272697,49.991467 125.601990,50.019875 139.931091,49.979279 
	C148.015152,49.956375 148.918671,49.035007 148.996323,41.154320 
	C149.024231,38.322071 149.020065,35.489208 148.999863,32.656841 
	C148.944077,24.839937 148.213104,24.034834 140.411896,24.022608 
	C115.918999,23.984221 91.425980,23.986561 66.933075,24.021088 
	C59.731682,24.031239 59.028103,24.764849 59.023510,32.180668 
	C59.000092,70.003105 59.000809,107.825577 59.021568,145.648026 
	C59.025780,153.321777 59.669483,153.973541 67.261620,153.983185 
	C90.921448,154.013260 114.581345,154.009766 138.241196,153.989166 
	C147.283615,153.981293 147.860321,153.374435 148.007202,143.397308 
M791.391296,203.010422 
	C784.037231,198.741821 776.699280,194.354218 767.838074,194.205368 
	C760.346985,194.079544 752.815002,193.685516 745.367371,194.263977 
	C731.653320,195.329193 721.593750,202.736710 713.969604,213.856873 
	C706.696472,224.465103 708.597961,236.045273 710.317078,247.600266 
	C710.454407,248.523331 711.229004,249.346893 711.686096,250.227753 
	C718.288025,262.949280 730.076599,267.824463 743.026978,270.912140 
	C751.429077,272.915405 759.899109,274.660217 768.229370,276.923431 
	C771.171570,277.722778 774.170593,279.275299 776.470093,281.263092 
	C780.377441,284.640717 780.524353,291.137390 777.371582,294.879669 
	C767.595581,306.483673 745.595581,304.349335 738.122620,291.215454 
	C737.179626,289.558105 735.067688,287.557190 733.416077,287.481201 
	C724.946960,287.091614 716.444031,287.108734 707.973083,287.463531 
	C706.793274,287.512939 704.490417,290.562256 704.791016,291.643768 
	C708.869934,306.320129 718.093323,316.277618 732.167236,322.532593 
	C741.728210,326.781830 751.412354,326.922974 761.415222,327.093201 
	C772.665955,327.284698 782.749207,323.982483 791.980103,317.975769 
	C795.077942,315.959900 797.762146,313.094696 800.122803,310.199768 
	C807.162598,301.566589 807.598633,291.222412 806.927551,280.774963 
	C806.331604,271.497772 802.126038,263.562744 794.936707,258.113556 
	C785.210083,250.741302 773.281311,248.445358 761.520142,245.964508 
	C755.410034,244.675659 749.222412,242.959229 743.613586,240.292374 
	C736.776062,237.041275 735.761536,226.182877 741.981750,222.242462 
	C751.877014,215.973984 766.442749,215.680222 773.972839,226.375259 
	C778.685669,233.068817 783.656616,234.484360 790.641907,234.031631 
	C793.960022,233.816589 797.304932,234.054016 800.633484,233.951385 
	C806.176880,233.780487 807.079956,232.639465 806.325562,227.281647 
	C804.918701,217.290176 798.867371,210.117661 791.391296,203.010422 
M569.638550,224.083755 
	C565.624451,205.026199 544.055908,194.122330 525.900574,194.863312 
	C510.942780,195.473785 495.940308,194.971939 480.957672,194.996735 
	C471.765656,195.011948 470.975494,195.792542 470.970886,204.972778 
	C470.953552,239.599365 470.959930,274.225952 470.965759,308.852539 
	C470.966370,312.514404 470.998016,316.176697 471.058380,319.838074 
	C471.125275,323.896362 473.198792,325.962189 477.282532,325.973114 
	C482.609375,325.987366 487.936951,326.071930 493.262878,326.010284 
	C499.821869,325.934418 500.889923,324.933929 500.953400,318.494629 
	C501.048553,308.840027 500.961426,299.183746 501.012604,289.528534 
	C501.048767,282.706482 501.664734,282.112671 508.452820,282.048492 
	C519.894714,281.940338 531.298828,282.502258 542.558716,279.052460 
	C552.395447,276.038696 560.658142,271.209045 565.723511,262.236938 
	C572.353271,250.494095 572.138184,237.737335 569.638550,224.083755 
M166.553558,283.888275 
	C164.797974,282.942017 163.091263,281.308105 161.277603,281.179230 
	C155.973328,280.802307 150.621155,281.167328 145.297791,280.970520 
	C140.660690,280.799072 137.621567,282.380920 135.289780,286.700439 
	C124.915100,305.919281 100.187836,302.391144 90.224686,289.412476 
	C83.346161,280.452057 82.423874,269.258301 81.729767,258.636078 
	C81.316628,252.313690 83.801956,245.545090 86.042313,239.360367 
	C90.492798,227.074371 99.896545,219.897827 112.764969,219.489960 
	C123.407600,219.152634 131.769867,224.355652 136.234406,234.893600 
	C137.141602,237.034927 140.130264,239.445679 142.358368,239.659622 
	C148.959091,240.293411 155.660004,239.951828 162.320221,239.869003 
	C165.713593,239.826813 167.052490,237.880539 166.580002,234.587509 
	C164.686340,221.389389 158.267487,210.944061 147.563782,203.031601 
	C135.506836,194.118805 121.840706,192.329544 107.293343,192.961441 
	C82.110634,194.055283 62.234337,213.623566 55.609653,233.778687 
	C51.116673,247.448288 50.980957,261.616913 53.137444,275.784973 
	C56.847725,300.161377 72.952873,320.149536 97.415749,325.654083 
	C114.845840,329.576141 132.738068,328.882263 148.106506,316.412476 
	C158.449066,308.020630 164.861908,297.811188 166.553558,283.888275 
M452.565216,115.041328 
	C448.842346,120.009811 445.623535,125.609558 439.095947,127.436882 
	C418.466492,133.211914 404.971558,122.171989 400.331818,102.817154 
	C397.341309,90.342293 397.564453,77.523102 403.704681,65.305725 
	C409.327942,54.116959 418.191101,48.297741 430.260040,48.291939 
	C440.599213,48.286968 448.596466,53.243309 453.393799,62.957600 
	C454.286652,64.765556 457.032471,66.599411 459.042419,66.742226 
	C465.671753,67.213280 472.356567,66.975983 479.018463,66.887436 
	C482.922546,66.835541 484.631989,64.622871 483.426971,60.966496 
	C481.920776,56.396309 480.310089,51.784634 478.070068,47.547390 
	C472.761963,37.506386 464.818512,29.847479 454.170685,25.925482 
	C439.679840,20.587957 424.653595,22.591654 409.805420,24.508816 
	C406.741730,24.904396 403.571594,26.065212 400.898438,27.635708 
	C384.705536,37.149132 374.354309,51.357605 370.090912,69.439285 
	C365.897552,87.223930 367.068604,105.037231 375.146942,121.644005 
	C383.208466,138.216248 395.461029,150.700912 414.429993,153.951370 
	C422.543091,155.341599 431.042053,155.257492 439.310638,154.814743 
	C462.467163,153.574799 477.910034,137.022369 483.489044,116.886261 
	C484.906586,111.769958 482.834381,109.267738 477.511719,109.097206 
	C472.186066,108.926552 466.848175,109.151321 461.521393,109.000099 
	C457.357422,108.881882 454.447906,110.464058 452.565216,115.041328 
M863.730103,66.171227 
	C871.856812,66.376419 879.985840,66.785835 888.109131,66.692513 
	C891.667480,66.651627 892.286255,63.625404 891.635681,60.785213 
	C887.875427,44.369003 877.707397,33.187572 862.802795,25.957808 
	C853.476990,21.434122 843.491882,23.115614 833.753479,23.130747 
	C828.000610,23.139687 821.896179,23.356968 816.558411,25.222029 
	C792.343018,33.683109 780.036926,55.761871 777.160706,77.890808 
	C775.579163,90.058975 776.508606,102.465744 780.840454,114.337692 
	C788.127441,134.308350 800.434631,149.155991 822.064514,153.822357 
	C828.633545,155.239517 835.630920,154.834457 842.437439,154.952347 
	C854.812805,155.166656 866.180237,152.259018 875.555481,143.575790 
	C883.431580,136.281082 889.278870,127.735641 891.634521,117.146675 
	C892.840393,111.726372 890.773682,109.250122 885.231934,109.080460 
	C880.403137,108.932625 875.561340,109.172691 870.734924,108.988853 
	C865.846069,108.802643 862.812683,110.578941 860.641296,115.280609 
	C855.385803,126.660339 841.181580,132.078445 829.422546,127.735130 
	C816.757629,123.057213 807.759705,108.776566 806.970337,92.841934 
	C806.462585,82.591789 808.825806,73.141716 812.972534,63.860779 
	C820.522339,46.963531 846.400024,41.990868 858.136414,57.751209 
	C859.999451,60.253044 861.424011,63.081387 863.730103,66.171227 
M1106.047485,32.406059 
	C1103.408081,29.380096 1103.490112,23.784775 1097.424805,23.993670 
	C1090.101440,24.245897 1082.759277,23.917067 1075.432007,24.105795 
	C1070.501953,24.232780 1069.475342,26.157215 1071.906738,30.509182 
	C1077.419800,40.376869 1082.985352,50.217529 1088.688354,59.976353 
	C1096.823730,73.897339 1105.251709,87.650017 1113.198364,101.676430 
	C1114.906494,104.691444 1115.758423,108.548080 1115.861084,112.050529 
	C1116.192871,123.372910 1115.956055,134.711075 1116.008911,146.042816 
	C1116.041748,153.084320 1116.862915,153.902527 1123.694092,153.979599 
	C1128.359619,154.032242 1133.026733,154.033920 1137.692139,153.976456 
	C1144.121338,153.897278 1144.933105,153.149048 1144.973145,146.774796 
	C1145.047241,134.943314 1144.926025,123.110077 1145.079102,111.280067 
	C1145.112671,108.683235 1145.341309,105.767517 1146.527466,103.562019 
	C1152.039795,93.313095 1157.823608,83.205795 1163.691895,73.153847 
	C1172.072388,58.798893 1180.632568,44.548943 1189.068604,30.226307 
	C1191.448608,26.185637 1190.512451,24.252316 1185.836426,24.122681 
	C1178.510620,23.919580 1171.162598,23.850739 1163.851074,24.236956 
	C1161.898926,24.340071 1159.251953,25.834412 1158.271729,27.488674 
	C1150.306152,40.931828 1142.680176,54.575764 1134.898804,68.128799 
	C1133.697876,70.220627 1132.232544,72.160652 1130.491089,74.767258 
	C1122.201538,60.332890 1114.349243,46.659851 1106.047485,32.406059 
M491.416260,24.633619 
	C490.621613,26.515087 489.288147,28.355438 489.140839,30.286304 
	C488.799683,34.757221 489.130646,39.274677 489.004913,43.768112 
	C488.879242,48.259300 491.001709,50.055279 495.376587,49.999840 
	C503.703064,49.894321 512.032104,49.974056 520.359985,50.000488 
	C528.673767,50.026871 528.968384,50.317921 528.975708,58.840416 
	C528.991699,77.328575 528.979614,95.816750 528.982605,114.304916 
	C528.984375,125.131294 528.937561,135.958099 529.020691,146.783890 
	C529.066162,152.698288 530.186401,153.811279 536.039307,153.947083 
	C541.033569,154.062988 546.032349,154.009323 551.028992,153.991165 
	C559.530884,153.960281 559.986267,153.516815 559.991638,144.852966 
	C560.009460,116.204643 559.990051,87.556297 560.009644,58.907982 
	C560.015381,50.544853 560.528503,50.038387 568.695312,50.003422 
	C577.522827,49.965626 586.350647,49.925205 595.177856,49.973389 
	C599.134949,49.994987 601.012451,48.186291 600.963623,44.224453 
	C600.914307,40.227947 601.010864,36.229828 600.983826,32.232822 
	C600.932556,24.645241 600.342712,24.022644 592.640930,24.016764 
	C560.827942,23.992474 529.015015,24.001976 497.202057,24.021978 
	C495.543579,24.023022 493.885223,24.235312 491.416260,24.633619 
M993.000183,140.477173 
	C993.005676,142.641937 992.973267,144.807587 993.023865,146.971298 
	C993.166931,153.091400 993.922180,153.878021 1000.000916,153.970871 
	C1004.662476,154.042084 1009.325867,154.010605 1013.988342,153.991989 
	C1022.556213,153.957794 1022.985718,153.549408 1022.991516,144.913254 
	C1023.011108,115.938766 1022.985657,86.964249 1023.019409,57.989792 
	C1023.027832,50.747906 1023.769714,50.052448 1031.111694,50.010479 
	C1039.437500,49.962887 1047.764282,50.045410 1056.089355,49.961300 
	C1062.572144,49.895809 1063.722290,48.733406 1063.872803,42.421227 
	C1063.948120,39.259037 1063.914551,36.093731 1063.899048,32.929989 
	C1063.858765,24.680037 1063.275879,24.029257 1055.134155,24.019224 
	C1028.157959,23.985981 1001.181702,23.999832 974.205444,24.004354 
	C968.544067,24.005302 962.882629,24.047644 957.221252,24.063089 
	C953.127502,24.074257 951.072449,26.105623 951.065491,30.211077 
	C951.059021,34.040779 950.982788,37.871033 951.027222,41.699997 
	C951.109619,48.797546 952.151489,49.903381 959.110107,49.965134 
	C967.768555,50.041965 976.428162,49.967770 985.087036,50.007145 
	C992.449463,50.040623 992.981934,50.564007 992.988281,58.055458 
	C993.011353,85.198219 992.999084,112.341003 993.000183,140.477173 
M193.997833,33.604599 
	C193.913086,24.205725 193.747421,24.033339 184.510895,24.005182 
	C180.512253,23.992992 176.513397,23.983402 172.514893,24.010084 
	C164.565994,24.063126 164.019012,24.578362 164.012604,32.576672 
	C163.990082,60.734009 164.001083,88.891380 164.001450,117.048737 
	C164.001587,126.878807 163.963593,136.709167 164.026581,146.538864 
	C164.068970,153.151382 164.871490,153.897629 171.631302,153.979980 
	C175.962601,154.032745 180.294983,153.998917 184.626877,153.997971 
	C205.453293,153.993454 226.280090,153.918518 247.105865,154.032211 
	C251.938705,154.058594 254.228928,152.261642 254.013550,147.279816 
	C253.826630,142.956116 254.033386,138.616974 253.967896,134.286133 
	C253.872345,127.966927 253.016602,127.063278 246.644714,127.034462 
	C232.316406,126.969666 217.987640,127.015839 203.659073,126.998375 
	C194.302917,126.986969 194.009888,126.710670 194.005310,117.550987 
	C193.991440,89.893471 193.999237,62.235943 193.997833,33.604599 
M296.162811,307.297852 
	C291.204651,296.056091 286.272095,284.802948 281.282043,273.575378 
	C274.399841,258.090485 267.529297,242.600021 260.546906,227.160248 
	C256.236908,217.629837 251.904312,208.099442 247.153717,198.787460 
	C246.249985,197.016006 243.405945,195.368683 241.342468,195.216248 
	C235.046707,194.751144 228.690689,194.898285 222.366302,195.084900 
	C216.743866,195.250793 215.611877,197.360245 217.905045,202.383011 
	C221.287033,209.790710 224.643753,217.211502 227.884842,224.681564 
	C231.456924,232.914459 234.734070,241.277695 238.412964,249.461304 
	C243.995422,261.879333 249.877396,274.162384 255.513153,286.556854 
	C260.739960,298.051941 265.604706,309.718292 271.128387,321.066071 
	C272.200958,323.269562 275.455139,325.474274 277.908997,325.734131 
	C284.168793,326.397156 290.551636,326.144196 296.872406,325.909973 
	C302.177673,325.713379 303.644501,323.219635 301.538727,318.275757 
	C300.043610,314.765625 298.183838,311.410858 296.162811,307.297852 
M907.070374,65.500000 
	C907.072205,92.309715 907.055176,119.119446 907.088257,145.929123 
	C907.097107,153.101440 907.930481,153.890686 915.187439,153.976593 
	C920.015808,154.033752 924.846191,154.038925 929.674316,153.973740 
	C936.063477,153.887512 936.933044,153.074341 936.961731,146.720200 
	C937.025574,132.566284 936.992065,118.411896 936.991577,104.257698 
	C936.990723,79.945778 937.012024,55.633801 936.962524,31.321974 
	C936.949524,24.933805 936.073547,24.115805 929.716553,24.027147 
	C924.888428,23.959814 920.058044,23.967251 915.229675,24.022741 
	C907.924744,24.106695 907.119446,24.878407 907.088074,32.028648 
	C907.040588,42.852249 907.072571,53.676197 907.070374,65.500000 
M741.641113,153.996185 
	C745.470886,153.996155 749.300781,154.012482 753.130493,153.992737 
	C761.434937,153.949905 761.988342,153.442566 761.992310,145.253113 
	C762.010437,107.787331 762.000610,70.321533 761.998596,32.855747 
	C761.998535,31.856794 761.941406,30.857098 761.964966,29.859020 
	C762.057434,25.938179 760.208557,24.006014 756.235962,24.036350 
	C750.908081,24.077034 745.578979,23.971493 740.251343,24.024618 
	C732.873657,24.098183 732.021606,24.952644 732.016968,32.521919 
	C731.994080,70.154205 731.993896,107.786514 732.016357,145.418808 
	C732.020935,153.159225 732.676453,153.746948 741.641113,153.996185 
M175.739410,326.025848 
	C181.232697,326.016998 186.726822,325.945831 192.219025,326.018860 
	C196.646332,326.077698 199.204834,323.889465 200.926300,319.924164 
	C209.583511,299.982819 218.350677,280.089050 227.137192,260.204193 
	C229.164078,255.617142 227.861710,253.265793 222.694702,253.087585 
	C217.706284,252.915558 212.659836,253.456070 207.725998,252.904449 
	C200.794312,252.129425 196.991211,255.099228 194.325882,261.242828 
	C186.199188,279.974792 177.708984,298.548706 169.456116,317.226501 
	C166.830063,323.169739 168.215820,325.267334 175.739410,326.025848 
M491.596893,400.230194 
	C495.162415,394.849274 495.008728,389.040436 492.404297,383.601990 
	C489.908844,378.390991 484.644928,377.907288 479.443237,377.993317 
	C474.778381,378.070465 470.111786,378.044189 465.445953,378.064362 
	C462.034180,378.079102 460.092560,379.668579 460.090942,383.199371 
	C460.084808,396.696747 460.072449,410.194305 460.138855,423.691406 
	C460.153900,426.747314 461.584473,428.865204 464.932526,428.889160 
	C471.429169,428.935638 477.945587,429.173004 484.417969,428.764069 
	C489.962799,428.413696 494.487885,422.815491 495.024933,417.336578 
	C495.610992,411.357819 494.258179,405.955017 491.596893,400.230194 
M390.447174,428.717255 
	C394.167419,428.389618 394.946106,425.834290 394.956299,422.726562 
	C394.976501,416.568878 395.155609,410.405090 394.948242,404.254669 
	C394.536743,392.050110 386.408661,388.736969 375.746552,390.776031 
	C374.316040,391.049622 372.887177,391.599915 371.461731,391.586243 
	C364.420959,391.518738 357.382202,391.229736 350.341522,391.175873 
	C347.119904,391.151245 346.131958,393.403534 346.089966,396.209167 
	C346.027710,400.368988 345.998077,404.529968 346.016449,408.690186 
	C346.039246,413.847656 345.724518,419.058838 346.408081,424.131958 
	C346.637970,425.838074 349.475616,427.192810 351.121399,428.708160 
	C352.361908,427.210541 354.082489,425.887970 354.710022,424.166870 
	C355.358215,422.389099 354.943359,420.223938 354.994568,418.228271 
	C355.113892,413.575073 354.781219,408.843170 355.570099,404.306305 
	C355.898468,402.417755 358.370239,400.360596 360.351105,399.520325 
	C361.401367,399.074829 363.986786,400.711334 364.963104,402.067474 
	C365.911285,403.384491 365.889832,405.538879 365.942139,407.335785 
	C366.106720,412.989655 365.879761,418.662933 366.244385,424.300262 
	C366.509277,428.395935 370.044403,430.232483 372.727264,427.778595 
	C373.998901,426.615540 374.746674,424.357544 374.855011,422.543304 
	C375.171997,417.234344 374.925629,411.894135 375.138153,406.575714 
	C375.294556,402.660675 377.277039,399.533844 381.369659,399.481750 
	C385.705597,399.426544 385.842773,403.253937 385.931183,406.442719 
	C386.083405,411.931274 385.717987,417.455078 386.230621,422.901886 
	C386.420288,424.917328 388.473694,426.757385 390.447174,428.717255 
M151.404739,428.726746 
	C155.249481,428.340485 156.384430,425.477570 157.509247,422.371704 
	C160.499115,414.116180 160.703995,414.043915 169.297867,414.041199 
	C170.129959,414.040924 170.969818,414.123871 171.792847,414.039337 
	C176.390366,413.567078 178.810684,415.870026 180.246582,420.050354 
	C181.091949,422.511505 182.200333,425.313232 184.093369,426.848083 
	C185.625366,428.090210 188.628326,428.192108 190.723480,427.703979 
	C191.467545,427.530609 192.256577,423.831696 191.667969,422.245880 
	C186.991119,409.645935 182.014145,397.156708 177.054398,384.663177 
	C176.324905,382.825592 175.403412,380.991760 174.218521,379.422058 
	C171.520401,375.847656 165.599915,376.176971 163.922119,380.248138 
	C158.290421,393.913239 152.875717,407.670929 147.623352,421.486481 
	C146.532867,424.354858 146.637512,427.562439 151.404739,428.726746 
M329.239349,429.145599 
	C332.077698,426.469116 335.077942,423.935425 337.647552,421.021912 
	C338.343109,420.233246 338.293610,417.796967 337.588806,417.008942 
	C336.662811,415.973602 334.620331,415.183746 333.295044,415.453369 
	C331.711761,415.775482 330.245972,417.185760 328.963409,418.376801 
	C325.502899,421.590393 321.371521,421.879425 318.411041,418.640015 
	C317.414215,417.549225 317.144440,415.794037 316.542358,414.342529 
	C317.872406,413.890747 319.187836,413.107056 320.535126,413.047882 
	C325.013794,412.851135 329.508392,413.024658 333.988037,412.840637 
	C337.059753,412.714508 339.433594,411.502594 339.826782,407.938416 
	C340.474182,402.070007 337.076782,394.872223 332.253265,392.119385 
	C328.540222,390.000366 316.847412,390.716705 313.519135,393.267120 
	C306.035278,399.001801 303.677063,410.367615 307.873260,420.478577 
	C310.811676,427.558960 318.606171,430.949127 329.239349,429.145599 
M587.067749,412.844543 
	C587.677429,415.085236 587.987854,417.465118 588.953247,419.540375 
	C591.810303,425.681946 596.384094,429.541992 603.498108,429.992371 
	C610.711487,430.448975 616.298767,428.062988 619.317139,421.267761 
	C619.920349,419.909821 619.788452,416.864838 619.120483,416.568237 
	C617.395569,415.802307 615.096130,415.750702 613.192688,416.169922 
	C611.921753,416.449860 611.019531,418.143311 609.809021,419.002258 
	C604.487732,422.777924 599.117859,420.526520 597.655212,413.471527 
	C599.472290,413.311646 601.227661,413.068756 602.988220,413.020660 
	C606.648071,412.920654 610.324585,413.111633 613.968933,412.840912 
	C619.482300,412.431335 621.276794,410.185669 620.922729,404.709259 
	C620.547241,398.903137 616.059814,392.323822 611.085632,391.524536 
	C602.341431,390.119507 595.040649,390.572845 590.901917,397.367645 
	C588.147888,401.889069 586.369812,406.619537 587.067749,412.844543 
M293.426117,392.823273 
	C288.001617,392.200958 282.577148,391.578613 275.958679,390.819336 
	C275.958679,388.396820 275.976990,384.656494 275.953033,380.916443 
	C275.933044,377.800049 275.225983,375.193268 271.329407,375.204742 
	C267.599365,375.215759 267.074341,377.826416 267.067596,380.671509 
	C267.034515,394.659760 267.032990,408.648285 267.079010,422.636475 
	C267.089020,425.676910 267.856781,428.544739 271.574402,428.662506 
	C275.592651,428.789734 275.836700,425.617706 275.920776,422.713898 
	C276.074860,417.388916 275.925293,412.051910 276.190552,406.734314 
	C276.409821,402.337708 279.115356,400.206329 283.431580,400.139069 
	C288.071136,400.066772 288.798737,403.366669 288.898224,406.900330 
	C289.057526,412.558624 288.963074,418.223663 289.080841,423.883698 
	C289.145355,426.983734 290.129547,429.646606 293.836945,429.667358 
	C297.551788,429.688141 297.932159,426.887207 297.945740,424.072540 
	C297.981049,416.745544 298.322845,409.389862 297.767639,402.104706 
	C297.538818,399.102142 295.325836,396.250854 293.426117,392.823273 
M91.091194,429.590515 
	C92.035851,428.011627 93.738968,426.459808 93.796486,424.849213 
	C94.075333,417.040314 93.985825,409.214630 93.878029,401.396942 
	C93.816612,396.943115 91.397308,392.906586 87.431137,392.261292 
	C81.718246,391.331818 75.533073,391.477081 69.910553,392.753845 
	C67.774261,393.238953 64.694107,398.907623 65.468567,400.844513 
	C66.895348,404.412750 71.002892,403.106537 74.093155,401.366241 
	C75.105148,400.796356 76.069298,400.039978 77.158279,399.726654 
	C80.976555,398.628052 83.461365,399.896851 84.559502,404.544312 
	C80.753899,404.832550 77.299980,404.859741 73.926926,405.395813 
	C65.533302,406.729736 62.535545,410.503143 63.087589,418.583313 
	C63.532898,425.101227 68.756050,429.830902 75.883003,429.937653 
	C80.688225,430.009613 85.497513,429.810211 91.091194,429.590515 
M431.207642,396.265411 
	C426.721252,388.759979 420.025940,386.755280 410.602448,390.095825 
	C405.370575,391.950500 403.047577,395.179108 403.071014,400.563538 
	C403.094421,405.941040 405.425934,409.122864 410.740906,410.912140 
	C413.889557,411.972107 417.167145,412.723694 420.180176,414.074677 
	C421.372650,414.609314 422.004852,416.393494 422.892181,417.608734 
	C421.524872,418.353119 419.941437,419.951324 418.833588,419.670837 
	C416.224640,419.010315 413.947754,416.929443 411.339325,416.406219 
	C408.700226,415.876892 405.823853,416.530518 403.051392,416.665955 
	C403.811096,419.168396 403.895294,422.251862 405.455536,424.065674 
	C410.379791,429.790161 417.190125,429.916595 423.903412,428.449921 
	C429.113129,427.311768 432.876007,422.053558 432.894653,417.126831 
	C432.914490,411.873444 429.511108,407.666382 423.892242,405.960327 
	C421.184113,405.138031 418.366058,404.530853 415.837830,403.323608 
	C414.533783,402.700928 413.755127,400.978058 412.739044,399.752228 
	C414.394714,398.977661 416.198212,397.366516 417.671021,397.626770 
	C419.820618,398.006653 421.703583,399.785889 423.751953,400.870911 
	C427.817596,403.024536 430.504425,401.628784 431.207642,396.265411 
M649.572327,404.411530 
	C649.734680,410.900085 649.857666,417.389984 650.077942,423.876556 
	C650.171326,426.624268 650.466797,429.543732 654.131897,429.636810 
	C657.867371,429.731567 658.872681,427.053070 658.910522,423.932129 
	C658.991394,417.267578 659.076538,410.599091 658.938782,403.936829 
	C658.757141,395.151855 654.116394,390.785004 645.305176,391.096863 
	C641.521240,391.230804 637.751526,392.093750 633.977112,392.081360 
	C629.966553,392.068176 628.050781,393.651947 628.055969,397.638123 
	C628.066772,405.969910 627.987671,414.302551 628.092834,422.632996 
	C628.128540,425.460907 628.190979,428.760468 632.305115,428.660004 
	C635.977112,428.570374 636.880737,425.848663 636.923523,422.735901 
	C636.992310,417.737427 636.550659,412.678070 637.211731,407.763763 
	C637.556396,405.201172 639.229858,401.949738 641.315979,400.699005 
	C644.206360,398.966187 647.463928,400.323914 649.572327,404.411530 
M534.996521,415.460510 
	C534.976562,409.134705 535.210205,402.791443 534.776917,396.494080 
	C534.652222,394.682220 532.930359,391.964600 531.371704,391.475281 
	C527.965454,390.405975 526.155640,392.690033 526.084595,396.153229 
	C525.965210,401.976715 526.137207,407.817993 525.731567,413.619995 
	C525.421814,418.050934 521.892883,421.062561 518.081421,420.554749 
	C513.822998,419.987366 513.073486,416.732666 513.039917,413.162170 
	C512.989746,407.835358 513.030518,402.507477 512.947144,397.181366 
	C512.901550,394.267273 512.784363,391.234467 508.684448,391.215057 
	C504.423309,391.194885 504.054199,394.218353 504.038300,397.410736 
	C504.009277,403.237183 504.287201,409.078888 503.959747,414.887329 
	C503.241638,427.626312 513.291931,430.879883 523.144958,428.218842 
	C524.212097,427.930634 525.405518,427.446228 526.402588,427.669159 
	C533.513916,429.259277 534.831299,428.278778 534.979431,420.937744 
	C535.009644,419.440002 534.992004,417.941284 534.996521,415.460510 
M258.004028,419.384827 
	C257.982544,414.223694 258.395966,409.014740 257.834808,403.912994 
	C257.047302,396.752686 253.693405,391.011871 245.769745,391.657959 
	C240.835602,392.060333 235.811035,391.697205 230.951355,392.464661 
	C229.449738,392.701843 227.325043,395.485077 227.251144,397.179565 
	C226.874313,405.820282 227.025116,414.486633 227.104416,423.143005 
	C227.130173,425.954712 227.759323,428.759613 231.397842,428.646454 
	C234.720200,428.543121 235.882004,426.117126 235.946487,423.156586 
	C236.055206,418.163788 235.976166,413.166901 236.087280,408.174225 
	C236.209061,402.701904 238.492203,400.036652 242.764038,400.164734 
	C246.866974,400.287720 248.834030,402.727234 248.957382,408.137970 
	C249.090164,413.962250 248.854980,419.807220 249.299286,425.603394 
	C249.409836,427.045471 251.592575,429.493561 252.693695,429.424347 
	C254.384018,429.318115 256.548828,427.762695 257.424255,426.209137 
	C258.307495,424.641663 257.864288,422.326721 258.004028,419.384827 
M117.394203,399.007690 
	C118.799225,397.589081 120.204239,396.170441 121.609245,394.751831 
	C120.322342,393.480896 118.943771,392.288361 117.772331,390.918671 
	C116.386925,389.298767 115.233604,387.482269 113.880798,385.832062 
	C112.605110,384.275970 110.989548,381.467072 109.901436,381.636475 
	C108.134445,381.911621 106.567520,384.066711 105.119720,385.618195 
	C103.836823,386.992950 103.100563,388.987427 101.647835,390.071686 
	C98.462158,392.449371 98.054008,395.699066 100.866379,397.531342 
	C105.298531,400.419006 105.006340,404.272247 105.010475,408.412140 
	C105.014641,412.574280 104.857285,416.751404 105.150452,420.895111 
	C105.652695,427.993805 113.048492,432.437744 119.402611,429.225830 
	C121.026329,428.405090 122.246010,425.698914 122.495346,423.713745 
	C122.615997,422.753174 120.149338,420.636078 118.698891,420.479401 
	C115.480141,420.131622 114.224823,418.534241 114.140587,415.681763 
	C114.022697,411.689972 113.852699,407.672089 114.196480,403.708038 
	C114.330467,402.162903 115.799477,400.733521 117.394203,399.007690 
M565.990845,425.323303 
	C568.947083,429.104889 572.988098,430.503784 577.505615,429.694183 
	C579.049072,429.417572 581.315674,427.503540 581.402893,426.212708 
	C581.511475,424.606750 580.014954,421.780548 578.666748,421.397064 
	C574.677795,420.262482 573.937622,417.712677 574.005615,414.252563 
	C574.064392,411.256134 574.076660,408.256195 574.003052,405.260437 
	C573.921204,401.931702 574.748413,399.605927 578.508301,398.584351 
	C579.877502,398.212372 581.383545,395.819855 581.519897,394.236572 
	C581.627991,392.981567 579.818420,391.487915 578.721802,390.220093 
	C577.136230,388.386993 575.467407,386.620178 573.754089,384.904968 
	C572.453735,383.603180 570.808044,381.257568 569.710510,381.464935 
	C568.030273,381.782318 566.479187,383.732513 565.256714,385.290527 
	C563.618713,387.378204 562.069519,389.632721 561.020203,392.049194 
	C560.379089,393.525574 560.038086,396.489716 560.777283,396.989807 
	C565.922913,400.471069 564.891052,405.571655 565.005249,410.464600 
	C565.115906,415.204071 565.387024,419.939789 565.990845,425.323303 
M220.526505,392.936157 
	C218.476532,389.017822 214.960526,390.149017 211.723679,390.414215 
	C209.433167,390.601837 207.141113,391.173767 204.868347,391.087067 
	C200.809250,390.932190 199.028000,392.739807 199.040985,396.689880 
	C199.069412,405.344788 198.998962,414.000305 199.076889,422.654602 
	C199.105011,425.778625 199.495514,428.907806 203.801636,428.790863 
	C207.675049,428.685638 208.885834,426.167450 208.925507,422.771606 
	C208.985809,417.612366 209.069122,412.451416 208.998001,407.293182 
	C208.930405,402.390045 210.787048,399.299652 216.047623,398.903778 
	C219.207596,398.665985 220.936890,397.021301 220.526505,392.936157 
M552.589172,425.630463 
	C552.700317,415.814240 552.991882,405.993500 552.747437,396.186127 
	C552.705994,394.526642 550.596497,391.874237 549.024536,391.516388 
	C545.823914,390.787750 544.196594,393.311066 544.164673,396.358978 
	C544.068726,405.515869 543.987976,414.679138 544.279724,423.827881 
	C544.330078,425.409760 545.943542,427.746307 547.357849,428.241821 
	C548.635864,428.689484 550.629089,427.095276 552.589172,425.630463 
M546.460632,386.216187 
	C549.064819,387.084839 551.899902,387.196869 552.422974,384.030457 
	C552.797058,381.766205 552.003296,378.902588 550.715210,376.990448 
	C550.263733,376.320251 545.607056,377.064880 544.965515,378.274475 
	C544.012939,380.070526 544.903992,382.856415 545.073181,385.216461 
	C545.089539,385.444244 545.547729,385.640320 546.460632,386.216187 
z"/>
<path fill="#1D1D1B" opacity="1.000000" stroke="none" 
	d="
M312.088806,198.106873 
	C314.227570,197.082367 316.329346,195.277847 318.511780,195.174393 
	C326.159668,194.811768 333.835663,195.077957 341.500305,195.017609 
	C345.122528,194.989090 347.505829,196.559708 348.765991,199.947525 
	C353.803711,213.490921 358.776276,227.059357 363.933105,240.557358 
	C369.023956,253.882721 374.308044,267.134247 379.628510,280.727753 
	C382.677856,272.498596 385.637451,264.435364 388.651703,256.392670 
	C395.652100,237.713852 402.698578,219.052338 409.678497,200.365906 
	C411.089478,196.588455 413.638458,194.903168 417.681122,194.977112 
	C424.510986,195.102036 431.345795,194.935043 438.176758,195.024765 
	C444.784210,195.111542 445.953888,196.286499 445.963074,203.092850 
	C446.007812,236.254242 445.991882,269.415741 445.991608,302.577179 
	C445.991547,308.242798 445.879883,313.909821 445.974487,319.573578 
	C446.048553,324.006775 443.912354,325.993622 439.609100,325.984741 
	C434.943481,325.975128 430.276031,326.091461 425.612640,325.994812 
	C419.392578,325.865845 418.062592,324.544098 418.041412,318.164001 
	C417.976685,298.667267 418.009735,279.170197 418.004883,259.673279 
	C418.004395,257.699677 418.004761,255.726074 417.187439,253.535660 
	C416.217346,255.380386 415.023163,257.142883 414.311646,259.082458 
	C406.815674,279.516693 399.365234,299.967804 391.984924,320.444061 
	C390.620789,324.228760 388.259430,326.233154 384.169708,325.998352 
	C384.003876,325.988831 383.836609,326.007965 383.670013,326.008453 
	C367.406128,326.056519 369.271576,326.986145 364.934265,314.156982 
	C360.308533,300.474762 354.951904,287.038055 349.834625,273.524323 
	C347.311127,266.860321 344.607971,260.264374 341.225708,253.551529 
	C341.149841,255.223068 341.009460,256.894531 341.007996,258.566132 
	C340.990906,277.896423 341.012939,297.226776 340.985168,316.557037 
	C340.972412,325.434967 340.394562,325.995483 331.708588,326.031342 
	C327.542786,326.048523 323.357666,326.247284 319.219086,325.906067 
	C317.228241,325.741974 315.324951,324.516479 313.164246,323.006744 
	C312.962219,283.158936 312.993286,244.076004 312.954956,204.993118 
	C312.952728,202.697433 312.390472,200.402283 312.088806,198.106873 
z"/>
<path fill="#1D1D1B" opacity="1.000000" stroke="none" 
	d="
M696.011108,101.143265 
	C694.745605,101.648193 693.802124,101.974655 692.859253,102.302628 
	C689.664917,103.413773 687.935242,104.817825 690.539001,108.408653 
	C694.827515,114.322754 698.766541,120.489571 702.881104,126.530624 
	C707.559875,133.399918 712.330383,140.207581 716.943481,147.120453 
	C719.809998,151.416046 718.711792,153.751129 713.611206,153.887253 
	C706.120544,154.087219 698.620300,153.897751 691.124695,153.951279 
	C687.045654,153.980423 684.910645,151.433640 682.914795,148.366089 
	C674.843628,135.961136 666.753662,123.566574 658.468384,111.304871 
	C657.280701,109.547119 655.160522,107.778336 653.170837,107.319199 
	C646.141724,105.697174 644.037842,107.569656 644.008301,114.759102 
	C643.963806,125.587265 643.870972,136.417282 644.025146,147.243301 
	C644.095276,152.173019 642.027771,154.241882 637.142273,154.021057 
	C632.986328,153.833221 628.814697,154.004669 624.649963,153.995285 
	C615.291321,153.974228 615.011780,153.720963 615.007019,144.549377 
	C614.992615,116.728874 614.999817,88.908348 615.000549,61.087833 
	C615.000854,51.259037 614.963074,41.429962 615.025085,31.601536 
	C615.067383,24.895576 615.883911,24.045864 622.501160,24.028183 
	C639.992920,23.981441 657.484924,24.018347 674.976807,24.020731 
	C692.295105,24.023092 709.468445,36.509266 713.230713,52.690010 
	C716.432556,66.460678 715.568237,79.146790 707.780823,90.784424 
	C705.032043,94.892159 700.209290,97.612000 696.011108,101.143265 
M644.992493,68.479134 
	C645.036987,71.472878 644.703430,74.541534 645.275879,77.430656 
	C645.590759,79.019661 647.454834,81.556412 648.578613,81.534355 
	C658.694946,81.335709 669.111877,84.529465 678.799438,78.713150 
	C684.409119,75.345184 687.232117,69.085907 685.784180,61.253670 
	C684.802856,55.945229 678.878723,50.441566 673.046448,50.192356 
	C665.407288,49.865932 657.744446,50.069511 650.091919,50.087631 
	C646.529907,50.096062 645.057800,52.133774 645.050598,55.508049 
	C645.042114,59.501163 645.012756,63.494232 644.992493,68.479134 
z"/>
<path fill="#1D1D1B" opacity="1.000000" stroke="none" 
	d="
M585.390991,287.442261 
	C584.869080,267.396423 584.377686,247.773178 584.029114,228.147385 
	C583.875366,219.489166 583.958496,210.825333 584.034241,202.164917 
	C584.087891,196.029633 584.974731,195.121857 590.925171,195.024429 
	C596.420105,194.934464 601.918945,194.931290 607.413635,195.027283 
	C613.665955,195.136505 614.937683,196.391022 614.955444,202.842621 
	C615.019897,226.327194 614.966370,249.812088 615.016235,273.296722 
	C615.031799,280.612946 616.318604,287.538818 621.686646,293.108307 
	C629.165466,300.867737 645.669434,303.001038 653.766541,295.968445 
	C657.731750,292.524536 660.142334,286.784088 662.050537,281.636017 
	C663.622192,277.395721 663.879333,272.500580 663.918945,267.888794 
	C664.100525,246.737396 663.990295,225.583588 664.006836,204.430664 
	C664.014038,195.262436 664.286438,195.005386 673.660400,194.993866 
	C678.490051,194.987930 683.320496,195.002594 688.149231,195.085449 
	C691.690002,195.146179 693.907837,196.857864 693.876648,200.562195 
	C693.636536,229.021225 694.740295,257.587982 692.552673,285.899200 
	C691.169800,303.794739 680.239563,317.175873 662.091187,323.726929 
	C648.310120,328.701508 634.300110,328.432312 620.805542,325.436035 
	C607.128723,322.399231 595.278198,314.905731 589.985352,300.458832 
	C588.451477,296.272186 586.979736,292.062744 585.390991,287.442261 
z"/>
<path fill="#1D1D1B" opacity="1.000000" stroke="none" 
	d="
M267.018005,146.735626 
	C267.008698,108.777596 266.999664,71.284172 267.007355,33.790752 
	C267.009277,24.565475 267.521393,24.020960 276.492615,24.012491 
	C300.655060,23.989677 324.817505,23.985718 348.979889,24.019911 
	C356.245148,24.030191 356.912903,24.762503 356.983734,32.098610 
	C357.014313,35.264427 357.010529,38.430931 356.986023,41.596848 
	C356.926331,49.305393 356.327393,49.959080 348.781372,49.979443 
	C334.283997,50.018562 319.786469,49.981766 305.289032,50.002289 
	C296.381989,50.014896 296.035400,50.382553 296.000641,59.322227 
	C295.992218,61.488483 295.991577,63.654831 296.001099,65.821075 
	C296.039734,74.632645 296.385590,74.984756 305.431763,74.998291 
	C317.762909,75.016739 330.094086,74.998650 342.425262,75.015190 
	C344.089447,75.017426 346.047180,74.600143 347.346100,75.320267 
	C349.119659,76.303528 351.514618,78.082359 351.673248,79.711899 
	C352.202972,85.153885 352.057312,90.691673 351.777618,96.172714 
	C351.562988,100.378784 348.237061,100.943222 344.869781,100.953773 
	C333.205322,100.990311 321.540680,100.971298 309.876160,100.996910 
	C294.633698,101.030373 296.059998,99.730911 295.998749,115.119339 
	C295.993439,116.452408 295.989136,117.785698 296.006927,119.118591 
	C296.101074,126.174606 296.799286,126.955467 303.726044,126.979851 
	C318.389954,127.031487 333.054169,126.986847 347.718231,127.010071 
	C356.515381,127.023994 356.959961,127.492264 356.989624,136.411407 
	C357.001801,140.077301 356.857086,143.748154 357.001862,147.408112 
	C357.185608,152.053619 355.167023,154.064407 350.470764,154.017517 
	C338.307556,153.896057 326.142242,153.998184 313.977753,153.997009 
	C300.646820,153.995728 287.315521,153.919205 273.985138,154.000504 
	C269.247925,154.029388 266.692444,152.183838 267.018005,146.735626 
z"/>
<path fill="#1D1D1B" opacity="1.000000" stroke="none" 
	d="
M148.006363,143.874069 
	C147.860321,153.374435 147.283615,153.981293 138.241196,153.989166 
	C114.581345,154.009766 90.921448,154.013260 67.261620,153.983185 
	C59.669483,153.973541 59.025780,153.321777 59.021568,145.648026 
	C59.000809,107.825577 59.000092,70.003105 59.023510,32.180668 
	C59.028103,24.764849 59.731682,24.031239 66.933075,24.021088 
	C91.425980,23.986561 115.918999,23.984221 140.411896,24.022608 
	C148.213104,24.034834 148.944077,24.839937 148.999863,32.656841 
	C149.020065,35.489208 149.024231,38.322071 148.996323,41.154320 
	C148.918671,49.035007 148.015152,49.956375 139.931091,49.979279 
	C125.601990,50.019875 111.272697,49.991467 96.943489,50.000317 
	C95.277824,50.001347 93.611450,50.033760 91.946693,50.089710 
	C88.999863,50.188751 87.185318,51.605434 87.137466,54.663113 
	C87.056686,59.825432 87.034004,64.990929 87.119690,70.152893 
	C87.193222,74.583214 90.355972,74.988403 93.760658,74.988281 
	C107.256752,74.987785 120.752884,74.981224 134.248917,75.014160 
	C142.510345,75.034317 142.964615,75.513824 143.004974,83.840538 
	C143.021133,87.172691 143.073990,90.508064 142.958542,93.836708 
	C142.762299,99.494652 141.423340,100.897995 135.690613,100.940727 
	C122.361832,101.040070 109.031883,100.968956 95.702492,101.003838 
	C87.516884,101.025253 87.045944,101.530884 87.005737,109.897751 
	C86.989723,113.230011 86.960602,116.563423 87.025711,119.894592 
	C87.144516,125.972137 88.006836,126.932007 94.006950,126.963654 
	C108.335770,127.039238 122.665230,126.990913 136.994415,127.005463 
	C147.687576,127.016319 147.985931,127.319939 148.006851,137.899460 
	C148.010483,139.732071 148.007263,141.564697 148.006363,143.874069 
z"/>
<path fill="#1D1D1B" opacity="1.000000" stroke="none" 
	d="
M791.671692,203.234497 
	C798.867371,210.117661 804.918701,217.290176 806.325562,227.281647 
	C807.079956,232.639465 806.176880,233.780487 800.633484,233.951385 
	C797.304932,234.054016 793.960022,233.816589 790.641907,234.031631 
	C783.656616,234.484360 778.685669,233.068817 773.972839,226.375259 
	C766.442749,215.680222 751.877014,215.973984 741.981750,222.242462 
	C735.761536,226.182877 736.776062,237.041275 743.613586,240.292374 
	C749.222412,242.959229 755.410034,244.675659 761.520142,245.964508 
	C773.281311,248.445358 785.210083,250.741302 794.936707,258.113556 
	C802.126038,263.562744 806.331604,271.497772 806.927551,280.774963 
	C807.598633,291.222412 807.162598,301.566589 800.122803,310.199768 
	C797.762146,313.094696 795.077942,315.959900 791.980103,317.975769 
	C782.749207,323.982483 772.665955,327.284698 761.415222,327.093201 
	C751.412354,326.922974 741.728210,326.781830 732.167236,322.532593 
	C718.093323,316.277618 708.869934,306.320129 704.791016,291.643768 
	C704.490417,290.562256 706.793274,287.512939 707.973083,287.463531 
	C716.444031,287.108734 724.946960,287.091614 733.416077,287.481201 
	C735.067688,287.557190 737.179626,289.558105 738.122620,291.215454 
	C745.595581,304.349335 767.595581,306.483673 777.371582,294.879669 
	C780.524353,291.137390 780.377441,284.640717 776.470093,281.263092 
	C774.170593,279.275299 771.171570,277.722778 768.229370,276.923431 
	C759.899109,274.660217 751.429077,272.915405 743.026978,270.912140 
	C730.076599,267.824463 718.288025,262.949280 711.686096,250.227753 
	C711.229004,249.346893 710.454407,248.523331 710.317078,247.600266 
	C708.597961,236.045273 706.696472,224.465103 713.969604,213.856873 
	C721.593750,202.736710 731.653320,195.329193 745.367371,194.263977 
	C752.815002,193.685516 760.346985,194.079544 767.838074,194.205368 
	C776.699280,194.354218 784.037231,198.741821 791.671692,203.234497 
z"/>
<path fill="#1D1D1B" opacity="1.000000" stroke="none" 
	d="
M569.751038,224.478912 
	C572.138184,237.737335 572.353271,250.494095 565.723511,262.236938 
	C560.658142,271.209045 552.395447,276.038696 542.558716,279.052460 
	C531.298828,282.502258 519.894714,281.940338 508.452820,282.048492 
	C501.664734,282.112671 501.048767,282.706482 501.012604,289.528534 
	C500.961426,299.183746 501.048553,308.840027 500.953400,318.494629 
	C500.889923,324.933929 499.821869,325.934418 493.262878,326.010284 
	C487.936951,326.071930 482.609375,325.987366 477.282532,325.973114 
	C473.198792,325.962189 471.125275,323.896362 471.058380,319.838074 
	C470.998016,316.176697 470.966370,312.514404 470.965759,308.852539 
	C470.959930,274.225952 470.953552,239.599365 470.970886,204.972778 
	C470.975494,195.792542 471.765656,195.011948 480.957672,194.996735 
	C495.940308,194.971939 510.942780,195.473785 525.900574,194.863312 
	C544.055908,194.122330 565.624451,205.026199 569.751038,224.478912 
M540.739990,232.874161 
	C538.784546,226.520111 532.043884,221.380630 524.748962,221.095215 
	C518.774841,220.861465 512.784241,221.077469 506.801636,221.022766 
	C502.865051,220.986786 501.001465,222.833755 501.027466,226.781525 
	C501.076721,234.260239 501.079163,241.739777 501.025391,249.218430 
	C500.996979,253.172256 502.852814,255.001617 506.796356,254.965179 
	C512.945251,254.908371 519.098511,255.089798 525.244019,254.934875 
	C537.847107,254.617142 544.096619,246.077713 540.739990,232.874161 
z"/>
<path fill="#1D1D1B" opacity="1.000000" stroke="none" 
	d="
M166.615509,284.278442 
	C164.861908,297.811188 158.449066,308.020630 148.106506,316.412476 
	C132.738068,328.882263 114.845840,329.576141 97.415749,325.654083 
	C72.952873,320.149536 56.847725,300.161377 53.137444,275.784973 
	C50.980957,261.616913 51.116673,247.448288 55.609653,233.778687 
	C62.234337,213.623566 82.110634,194.055283 107.293343,192.961441 
	C121.840706,192.329544 135.506836,194.118805 147.563782,203.031601 
	C158.267487,210.944061 164.686340,221.389389 166.580002,234.587509 
	C167.052490,237.880539 165.713593,239.826813 162.320221,239.869003 
	C155.660004,239.951828 148.959091,240.293411 142.358368,239.659622 
	C140.130264,239.445679 137.141602,237.034927 136.234406,234.893600 
	C131.769867,224.355652 123.407600,219.152634 112.764969,219.489960 
	C99.896545,219.897827 90.492798,227.074371 86.042313,239.360367 
	C83.801956,245.545090 81.316628,252.313690 81.729767,258.636078 
	C82.423874,269.258301 83.346161,280.452057 90.224686,289.412476 
	C100.187836,302.391144 124.915100,305.919281 135.289780,286.700439 
	C137.621567,282.380920 140.660690,280.799072 145.297791,280.970520 
	C150.621155,281.167328 155.973328,280.802307 161.277603,281.179230 
	C163.091263,281.308105 164.797974,282.942017 166.615509,284.278442 
z"/>
<path fill="#1D1D1B" opacity="1.000000" stroke="none" 
	d="
M452.729980,114.710297 
	C454.447906,110.464058 457.357422,108.881882 461.521393,109.000099 
	C466.848175,109.151321 472.186066,108.926552 477.511719,109.097206 
	C482.834381,109.267738 484.906586,111.769958 483.489044,116.886261 
	C477.910034,137.022369 462.467163,153.574799 439.310638,154.814743 
	C431.042053,155.257492 422.543091,155.341599 414.429993,153.951370 
	C395.461029,150.700912 383.208466,138.216248 375.146942,121.644005 
	C367.068604,105.037231 365.897552,87.223930 370.090912,69.439285 
	C374.354309,51.357605 384.705536,37.149132 400.898438,27.635708 
	C403.571594,26.065212 406.741730,24.904396 409.805420,24.508816 
	C424.653595,22.591654 439.679840,20.587957 454.170685,25.925482 
	C464.818512,29.847479 472.761963,37.506386 478.070068,47.547390 
	C480.310089,51.784634 481.920776,56.396309 483.426971,60.966496 
	C484.631989,64.622871 482.922546,66.835541 479.018463,66.887436 
	C472.356567,66.975983 465.671753,67.213280 459.042419,66.742226 
	C457.032471,66.599411 454.286652,64.765556 453.393799,62.957600 
	C448.596466,53.243309 440.599213,48.286968 430.260040,48.291939 
	C418.191101,48.297741 409.327942,54.116959 403.704681,65.305725 
	C397.564453,77.523102 397.341309,90.342293 400.331818,102.817154 
	C404.971558,122.171989 418.466492,133.211914 439.095947,127.436882 
	C445.623535,125.609558 448.842346,120.009811 452.729980,114.710297 
z"/>
<path fill="#1D1D1B" opacity="1.000000" stroke="none" 
	d="
M863.390747,65.964996 
	C861.424011,63.081387 859.999451,60.253044 858.136414,57.751209 
	C846.400024,41.990868 820.522339,46.963531 812.972534,63.860779 
	C808.825806,73.141716 806.462585,82.591789 806.970337,92.841934 
	C807.759705,108.776566 816.757629,123.057213 829.422546,127.735130 
	C841.181580,132.078445 855.385803,126.660339 860.641296,115.280609 
	C862.812683,110.578941 865.846069,108.802643 870.734924,108.988853 
	C875.561340,109.172691 880.403137,108.932625 885.231934,109.080460 
	C890.773682,109.250122 892.840393,111.726372 891.634521,117.146675 
	C889.278870,127.735641 883.431580,136.281082 875.555481,143.575790 
	C866.180237,152.259018 854.812805,155.166656 842.437439,154.952347 
	C835.630920,154.834457 828.633545,155.239517 822.064514,153.822357 
	C800.434631,149.155991 788.127441,134.308350 780.840454,114.337692 
	C776.508606,102.465744 775.579163,90.058975 777.160706,77.890808 
	C780.036926,55.761871 792.343018,33.683109 816.558411,25.222029 
	C821.896179,23.356968 828.000610,23.139687 833.753479,23.130747 
	C843.491882,23.115614 853.476990,21.434122 862.802795,25.957808 
	C877.707397,33.187572 887.875427,44.369003 891.635681,60.785213 
	C892.286255,63.625404 891.667480,66.651627 888.109131,66.692513 
	C879.985840,66.785835 871.856812,66.376419 863.390747,65.964996 
z"/>
<path fill="#1D1D1B" opacity="1.000000" stroke="none" 
	d="
M1106.272217,32.696434 
	C1114.349243,46.659851 1122.201538,60.332890 1130.491089,74.767258 
	C1132.232544,72.160652 1133.697876,70.220627 1134.898804,68.128799 
	C1142.680176,54.575764 1150.306152,40.931828 1158.271729,27.488674 
	C1159.251953,25.834412 1161.898926,24.340071 1163.851074,24.236956 
	C1171.162598,23.850739 1178.510620,23.919580 1185.836426,24.122681 
	C1190.512451,24.252316 1191.448608,26.185637 1189.068604,30.226307 
	C1180.632568,44.548943 1172.072388,58.798893 1163.691895,73.153847 
	C1157.823608,83.205795 1152.039795,93.313095 1146.527466,103.562019 
	C1145.341309,105.767517 1145.112671,108.683235 1145.079102,111.280067 
	C1144.926025,123.110077 1145.047241,134.943314 1144.973145,146.774796 
	C1144.933105,153.149048 1144.121338,153.897278 1137.692139,153.976456 
	C1133.026733,154.033920 1128.359619,154.032242 1123.694092,153.979599 
	C1116.862915,153.902527 1116.041748,153.084320 1116.008911,146.042816 
	C1115.956055,134.711075 1116.192871,123.372910 1115.861084,112.050529 
	C1115.758423,108.548080 1114.906494,104.691444 1113.198364,101.676430 
	C1105.251709,87.650017 1096.823730,73.897339 1088.688354,59.976353 
	C1082.985352,50.217529 1077.419800,40.376869 1071.906738,30.509182 
	C1069.475342,26.157215 1070.501953,24.232780 1075.432007,24.105795 
	C1082.759277,23.917067 1090.101440,24.245897 1097.424805,23.993670 
	C1103.490112,23.784775 1103.408081,29.380096 1106.272217,32.696434 
z"/>
<path fill="#1D1D1B" opacity="1.000000" stroke="none" 
	d="
M491.821533,24.491436 
	C493.885223,24.235312 495.543579,24.023022 497.202057,24.021978 
	C529.015015,24.001976 560.827942,23.992474 592.640930,24.016764 
	C600.342712,24.022644 600.932556,24.645241 600.983826,32.232822 
	C601.010864,36.229828 600.914307,40.227947 600.963623,44.224453 
	C601.012451,48.186291 599.134949,49.994987 595.177856,49.973389 
	C586.350647,49.925205 577.522827,49.965626 568.695312,50.003422 
	C560.528503,50.038387 560.015381,50.544853 560.009644,58.907982 
	C559.990051,87.556297 560.009460,116.204643 559.991638,144.852966 
	C559.986267,153.516815 559.530884,153.960281 551.028992,153.991165 
	C546.032349,154.009323 541.033569,154.062988 536.039307,153.947083 
	C530.186401,153.811279 529.066162,152.698288 529.020691,146.783890 
	C528.937561,135.958099 528.984375,125.131294 528.982605,114.304916 
	C528.979614,95.816750 528.991699,77.328575 528.975708,58.840416 
	C528.968384,50.317921 528.673767,50.026871 520.359985,50.000488 
	C512.032104,49.974056 503.703064,49.894321 495.376587,49.999840 
	C491.001709,50.055279 488.879242,48.259300 489.004913,43.768112 
	C489.130646,39.274677 488.799683,34.757221 489.140839,30.286304 
	C489.288147,28.355438 490.621613,26.515087 491.821533,24.491436 
z"/>
<path fill="#1D1D1B" opacity="1.000000" stroke="none" 
	d="
M993.000122,139.980469 
	C992.999084,112.341003 993.011353,85.198219 992.988281,58.055458 
	C992.981934,50.564007 992.449463,50.040623 985.087036,50.007145 
	C976.428162,49.967770 967.768555,50.041965 959.110107,49.965134 
	C952.151489,49.903381 951.109619,48.797546 951.027222,41.699997 
	C950.982788,37.871033 951.059021,34.040779 951.065491,30.211077 
	C951.072449,26.105623 953.127502,24.074257 957.221252,24.063089 
	C962.882629,24.047644 968.544067,24.005302 974.205444,24.004354 
	C1001.181702,23.999832 1028.157959,23.985981 1055.134155,24.019224 
	C1063.275879,24.029257 1063.858765,24.680037 1063.899048,32.929989 
	C1063.914551,36.093731 1063.948120,39.259037 1063.872803,42.421227 
	C1063.722290,48.733406 1062.572144,49.895809 1056.089355,49.961300 
	C1047.764282,50.045410 1039.437500,49.962887 1031.111694,50.010479 
	C1023.769714,50.052448 1023.027832,50.747906 1023.019409,57.989792 
	C1022.985657,86.964249 1023.011108,115.938766 1022.991516,144.913254 
	C1022.985718,153.549408 1022.556213,153.957794 1013.988342,153.991989 
	C1009.325867,154.010605 1004.662476,154.042084 1000.000916,153.970871 
	C993.922180,153.878021 993.166931,153.091400 993.023865,146.971298 
	C992.973267,144.807587 993.005676,142.641937 993.000122,139.980469 
z"/>
<path fill="#1D1D1B" opacity="1.000000" stroke="none" 
	d="
M193.998199,34.091507 
	C193.999237,62.235943 193.991440,89.893471 194.005310,117.550987 
	C194.009888,126.710670 194.302917,126.986969 203.659073,126.998375 
	C217.987640,127.015839 232.316406,126.969666 246.644714,127.034462 
	C253.016602,127.063278 253.872345,127.966927 253.967896,134.286133 
	C254.033386,138.616974 253.826630,142.956116 254.013550,147.279816 
	C254.228928,152.261642 251.938705,154.058594 247.105865,154.032211 
	C226.280090,153.918518 205.453293,153.993454 184.626877,153.997971 
	C180.294983,153.998917 175.962601,154.032745 171.631302,153.979980 
	C164.871490,153.897629 164.068970,153.151382 164.026581,146.538864 
	C163.963593,136.709167 164.001587,126.878807 164.001450,117.048737 
	C164.001083,88.891380 163.990082,60.734009 164.012604,32.576672 
	C164.019012,24.578362 164.565994,24.063126 172.514893,24.010084 
	C176.513397,23.983402 180.512253,23.992992 184.510895,24.005182 
	C193.747421,24.033339 193.913086,24.205725 193.998199,34.091507 
z"/>
<path fill="#1D1D1B" opacity="1.000000" stroke="none" 
	d="
M296.324829,307.642273 
	C298.183838,311.410858 300.043610,314.765625 301.538727,318.275757 
	C303.644501,323.219635 302.177673,325.713379 296.872406,325.909973 
	C290.551636,326.144196 284.168793,326.397156 277.908997,325.734131 
	C275.455139,325.474274 272.200958,323.269562 271.128387,321.066071 
	C265.604706,309.718292 260.739960,298.051941 255.513153,286.556854 
	C249.877396,274.162384 243.995422,261.879333 238.412964,249.461304 
	C234.734070,241.277695 231.456924,232.914459 227.884842,224.681564 
	C224.643753,217.211502 221.287033,209.790710 217.905045,202.383011 
	C215.611877,197.360245 216.743866,195.250793 222.366302,195.084900 
	C228.690689,194.898285 235.046707,194.751144 241.342468,195.216248 
	C243.405945,195.368683 246.249985,197.016006 247.153717,198.787460 
	C251.904312,208.099442 256.236908,217.629837 260.546906,227.160248 
	C267.529297,242.600021 274.399841,258.090485 281.282043,273.575378 
	C286.272095,284.802948 291.204651,296.056091 296.324829,307.642273 
z"/>
<path fill="#1D1D1B" opacity="1.000000" stroke="none" 
	d="
M907.070557,65.000000 
	C907.072571,53.676197 907.040588,42.852249 907.088074,32.028648 
	C907.119446,24.878407 907.924744,24.106695 915.229675,24.022741 
	C920.058044,23.967251 924.888428,23.959814 929.716553,24.027147 
	C936.073547,24.115805 936.949524,24.933805 936.962524,31.321974 
	C937.012024,55.633801 936.990723,79.945778 936.991577,104.257698 
	C936.992065,118.411896 937.025574,132.566284 936.961731,146.720200 
	C936.933044,153.074341 936.063477,153.887512 929.674316,153.973740 
	C924.846191,154.038925 920.015808,154.033752 915.187439,153.976593 
	C907.930481,153.890686 907.097107,153.101440 907.088257,145.929123 
	C907.055176,119.119446 907.072205,92.309715 907.070557,65.000000 
z"/>
<path fill="#1D1D1B" opacity="1.000000" stroke="none" 
	d="
M741.166504,153.994156 
	C732.676453,153.746948 732.020935,153.159225 732.016357,145.418808 
	C731.993896,107.786514 731.994080,70.154205 732.016968,32.521919 
	C732.021606,24.952644 732.873657,24.098183 740.251343,24.024618 
	C745.578979,23.971493 750.908081,24.077034 756.235962,24.036350 
	C760.208557,24.006014 762.057434,25.938179 761.964966,29.859020 
	C761.941406,30.857098 761.998535,31.856794 761.998596,32.855747 
	C762.000610,70.321533 762.010437,107.787331 761.992310,145.253113 
	C761.988342,153.442566 761.434937,153.949905 753.130493,153.992737 
	C749.300781,154.012482 745.470886,153.996155 741.166504,153.994156 
z"/>
<path fill="#1D1D1B" opacity="1.000000" stroke="none" 
	d="
M175.280121,326.017822 
	C168.215820,325.267334 166.830063,323.169739 169.456116,317.226501 
	C177.708984,298.548706 186.199188,279.974792 194.325882,261.242828 
	C196.991211,255.099228 200.794312,252.129425 207.725998,252.904449 
	C212.659836,253.456070 217.706284,252.915558 222.694702,253.087585 
	C227.861710,253.265793 229.164078,255.617142 227.137192,260.204193 
	C218.350677,280.089050 209.583511,299.982819 200.926300,319.924164 
	C199.204834,323.889465 196.646332,326.077698 192.219025,326.018860 
	C186.726822,325.945831 181.232697,326.016998 175.280121,326.017822 
z"/>
<path fill="#1D1D1B" opacity="1.000000" stroke="none" 
	d="
M491.481018,400.525574 
	C494.258179,405.955017 495.610992,411.357819 495.024933,417.336578 
	C494.487885,422.815491 489.962799,428.413696 484.417969,428.764069 
	C477.945587,429.173004 471.429169,428.935638 464.932526,428.889160 
	C461.584473,428.865204 460.153900,426.747314 460.138855,423.691406 
	C460.072449,410.194305 460.084808,396.696747 460.090942,383.199371 
	C460.092560,379.668579 462.034180,378.079102 465.445953,378.064362 
	C470.111786,378.044189 474.778381,378.070465 479.443237,377.993317 
	C484.644928,377.907288 489.908844,378.390991 492.404297,383.601990 
	C495.008728,389.040436 495.162415,394.849274 491.481018,400.525574 
M481.547607,407.537537 
	C479.730072,407.368225 477.913727,407.070587 476.094757,407.053223 
	C470.135712,406.996338 469.012787,408.040680 469.024017,413.360809 
	C469.035370,418.721191 470.229340,419.878296 475.949554,419.970612 
	C477.445251,419.994751 479.251770,420.408813 480.377045,419.739105 
	C482.892639,418.241821 486.085968,416.561371 486.987335,414.189453 
	C487.495850,412.851288 484.003143,409.992645 481.547607,407.537537 
M469.294495,389.042603 
	C469.216461,389.697235 469.070312,390.352051 469.072235,391.006439 
	C469.080536,393.826721 468.760376,397.091156 472.543793,397.654907 
	C476.599701,398.259216 481.284943,399.009186 483.734436,394.789276 
	C484.666107,393.184174 483.927521,389.522217 482.597046,387.924774 
	C480.073364,384.894775 472.967712,385.477448 469.294495,389.042603 
z"/>
<path fill="#1D1D1B" opacity="1.000000" stroke="none" 
	d="
M390.062164,428.697327 
	C388.473694,426.757385 386.420288,424.917328 386.230621,422.901886 
	C385.717987,417.455078 386.083405,411.931274 385.931183,406.442719 
	C385.842773,403.253937 385.705597,399.426544 381.369659,399.481750 
	C377.277039,399.533844 375.294556,402.660675 375.138153,406.575714 
	C374.925629,411.894135 375.171997,417.234344 374.855011,422.543304 
	C374.746674,424.357544 373.998901,426.615540 372.727264,427.778595 
	C370.044403,430.232483 366.509277,428.395935 366.244385,424.300262 
	C365.879761,418.662933 366.106720,412.989655 365.942139,407.335785 
	C365.889832,405.538879 365.911285,403.384491 364.963104,402.067474 
	C363.986786,400.711334 361.401367,399.074829 360.351105,399.520325 
	C358.370239,400.360596 355.898468,402.417755 355.570099,404.306305 
	C354.781219,408.843170 355.113892,413.575073 354.994568,418.228271 
	C354.943359,420.223938 355.358215,422.389099 354.710022,424.166870 
	C354.082489,425.887970 352.361908,427.210541 351.121399,428.708160 
	C349.475616,427.192810 346.637970,425.838074 346.408081,424.131958 
	C345.724518,419.058838 346.039246,413.847656 346.016449,408.690186 
	C345.998077,404.529968 346.027710,400.368988 346.089966,396.209167 
	C346.131958,393.403534 347.119904,391.151245 350.341522,391.175873 
	C357.382202,391.229736 364.420959,391.518738 371.461731,391.586243 
	C372.887177,391.599915 374.316040,391.049622 375.746552,390.776031 
	C386.408661,388.736969 394.536743,392.050110 394.948242,404.254669 
	C395.155609,410.405090 394.976501,416.568878 394.956299,422.726562 
	C394.946106,425.834290 394.167419,428.389618 390.062164,428.697327 
z"/>
<path fill="#1D1D1B" opacity="1.000000" stroke="none" 
	d="
M151.031616,428.707520 
	C146.637512,427.562439 146.532867,424.354858 147.623352,421.486481 
	C152.875717,407.670929 158.290421,393.913239 163.922119,380.248138 
	C165.599915,376.176971 171.520401,375.847656 174.218521,379.422058 
	C175.403412,380.991760 176.324905,382.825592 177.054398,384.663177 
	C182.014145,397.156708 186.991119,409.645935 191.667969,422.245880 
	C192.256577,423.831696 191.467545,427.530609 190.723480,427.703979 
	C188.628326,428.192108 185.625366,428.090210 184.093369,426.848083 
	C182.200333,425.313232 181.091949,422.511505 180.246582,420.050354 
	C178.810684,415.870026 176.390366,413.567078 171.792847,414.039337 
	C170.969818,414.123871 170.129959,414.040924 169.297867,414.041199 
	C160.703995,414.043915 160.499115,414.116180 157.509247,422.371704 
	C156.384430,425.477570 155.249481,428.340485 151.031616,428.707520 
M167.260880,405.480499 
	C174.326660,406.462067 174.956207,405.736603 172.447144,399.518768 
	C171.592819,397.401672 170.753174,395.278595 169.906815,393.158264 
	C168.179718,397.152008 162.939270,400.019318 167.260880,405.480499 
z"/>
<path fill="#1D1D1B" opacity="1.000000" stroke="none" 
	d="
M328.861633,429.294342 
	C318.606171,430.949127 310.811676,427.558960 307.873260,420.478577 
	C303.677063,410.367615 306.035278,399.001801 313.519135,393.267120 
	C316.847412,390.716705 328.540222,390.000366 332.253265,392.119385 
	C337.076782,394.872223 340.474182,402.070007 339.826782,407.938416 
	C339.433594,411.502594 337.059753,412.714508 333.988037,412.840637 
	C329.508392,413.024658 325.013794,412.851135 320.535126,413.047882 
	C319.187836,413.107056 317.872406,413.890747 316.542358,414.342529 
	C317.144440,415.794037 317.414215,417.549225 318.411041,418.640015 
	C321.371521,421.879425 325.502899,421.590393 328.963409,418.376801 
	C330.245972,417.185760 331.711761,415.775482 333.295044,415.453369 
	C334.620331,415.183746 336.662811,415.973602 337.588806,417.008942 
	C338.293610,417.796967 338.343109,420.233246 337.647552,421.021912 
	C335.077942,423.935425 332.077698,426.469116 328.861633,429.294342 
M327.590454,400.324066 
	C322.585846,397.256714 319.764740,397.754059 317.596130,402.777832 
	C320.647827,402.777832 323.409088,402.902435 326.143219,402.685577 
	C326.784332,402.634735 327.333801,401.428741 327.590454,400.324066 
z"/>
<path fill="#1D1D1B" opacity="1.000000" stroke="none" 
	d="
M587.041992,412.431702 
	C586.369812,406.619537 588.147888,401.889069 590.901917,397.367645 
	C595.040649,390.572845 602.341431,390.119507 611.085632,391.524536 
	C616.059814,392.323822 620.547241,398.903137 620.922729,404.709259 
	C621.276794,410.185669 619.482300,412.431335 613.968933,412.840912 
	C610.324585,413.111633 606.648071,412.920654 602.988220,413.020660 
	C601.227661,413.068756 599.472290,413.311646 597.655212,413.471527 
	C599.117859,420.526520 604.487732,422.777924 609.809021,419.002258 
	C611.019531,418.143311 611.921753,416.449860 613.192688,416.169922 
	C615.096130,415.750702 617.395569,415.802307 619.120483,416.568237 
	C619.788452,416.864838 619.920349,419.909821 619.317139,421.267761 
	C616.298767,428.062988 610.711487,430.448975 603.498108,429.992371 
	C596.384094,429.541992 591.810303,425.681946 588.953247,419.540375 
	C587.987854,417.465118 587.677429,415.085236 587.041992,412.431702 
M603.990784,402.850311 
	C606.047119,402.850311 608.103455,402.850311 610.159790,402.850311 
	C610.332397,402.190582 610.505005,401.530853 610.677612,400.871124 
	C608.668701,399.949615 606.642883,398.275604 604.655579,398.320099 
	C602.700745,398.363861 600.785034,400.151154 598.852112,401.173370 
	C599.051331,401.644836 599.250549,402.116272 599.449768,402.587708 
	C600.719360,402.678192 601.988892,402.768677 603.990784,402.850311 
z"/>
<path fill="#1D1D1B" opacity="1.000000" stroke="none" 
	d="
M293.720734,393.077026 
	C295.325836,396.250854 297.538818,399.102142 297.767639,402.104706 
	C298.322845,409.389862 297.981049,416.745544 297.945740,424.072540 
	C297.932159,426.887207 297.551788,429.688141 293.836945,429.667358 
	C290.129547,429.646606 289.145355,426.983734 289.080841,423.883698 
	C288.963074,418.223663 289.057526,412.558624 288.898224,406.900330 
	C288.798737,403.366669 288.071136,400.066772 283.431580,400.139069 
	C279.115356,400.206329 276.409821,402.337708 276.190552,406.734314 
	C275.925293,412.051910 276.074860,417.388916 275.920776,422.713898 
	C275.836700,425.617706 275.592651,428.789734 271.574402,428.662506 
	C267.856781,428.544739 267.089020,425.676910 267.079010,422.636475 
	C267.032990,408.648285 267.034515,394.659760 267.067596,380.671509 
	C267.074341,377.826416 267.599365,375.215759 271.329407,375.204742 
	C275.225983,375.193268 275.933044,377.800049 275.953033,380.916443 
	C275.976990,384.656494 275.958679,388.396820 275.958679,390.819336 
	C282.577148,391.578613 288.001617,392.200958 293.720734,393.077026 
z"/>
<path fill="#1D1D1B" opacity="1.000000" stroke="none" 
	d="
M90.698090,429.661377 
	C85.497513,429.810211 80.688225,430.009613 75.883003,429.937653 
	C68.756050,429.830902 63.532898,425.101227 63.087589,418.583313 
	C62.535545,410.503143 65.533302,406.729736 73.926926,405.395813 
	C77.299980,404.859741 80.753899,404.832550 84.559502,404.544312 
	C83.461365,399.896851 80.976555,398.628052 77.158279,399.726654 
	C76.069298,400.039978 75.105148,400.796356 74.093155,401.366241 
	C71.002892,403.106537 66.895348,404.412750 65.468567,400.844513 
	C64.694107,398.907623 67.774261,393.238953 69.910553,392.753845 
	C75.533073,391.477081 81.718246,391.331818 87.431137,392.261292 
	C91.397308,392.906586 93.816612,396.943115 93.878029,401.396942 
	C93.985825,409.214630 94.075333,417.040314 93.796486,424.849213 
	C93.738968,426.459808 92.035851,428.011627 90.698090,429.661377 
M75.912384,413.116150 
	C73.016434,413.990479 71.025925,416.487915 73.205307,418.497406 
	C75.003288,420.155182 78.806915,420.170959 81.630371,419.913177 
	C82.714340,419.814240 83.545105,416.942017 84.491219,415.333496 
	C83.026253,414.591248 81.620491,413.663177 80.075851,413.170990 
	C79.017265,412.833649 77.765450,413.102753 75.912384,413.116150 
z"/>
<path fill="#1D1D1B" opacity="1.000000" stroke="none" 
	d="
M431.317627,396.607422 
	C430.504425,401.628784 427.817596,403.024536 423.751953,400.870911 
	C421.703583,399.785889 419.820618,398.006653 417.671021,397.626770 
	C416.198212,397.366516 414.394714,398.977661 412.739075,399.752258 
	C413.755127,400.978058 414.533783,402.700928 415.837830,403.323608 
	C418.366058,404.530853 421.184113,405.138031 423.892242,405.960327 
	C429.511108,407.666382 432.914490,411.873444 432.894653,417.126831 
	C432.876007,422.053558 429.113129,427.311768 423.903412,428.449921 
	C417.190125,429.916595 410.379791,429.790161 405.455536,424.065674 
	C403.895294,422.251862 403.811096,419.168396 403.051392,416.665955 
	C405.823853,416.530518 408.700226,415.876892 411.339325,416.406219 
	C413.947754,416.929443 416.224640,419.010315 418.833588,419.670837 
	C419.941437,419.951324 421.524872,418.353119 422.892181,417.608734 
	C422.004852,416.393494 421.372650,414.609314 420.180176,414.074677 
	C417.167145,412.723694 413.889557,411.972107 410.740906,410.912140 
	C405.425934,409.122864 403.094421,405.941040 403.071014,400.563538 
	C403.047577,395.179108 405.370575,391.950500 410.602448,390.095825 
	C420.025940,386.755280 426.721252,388.759979 431.317627,396.607422 
z"/>
<path fill="#1D1D1B" opacity="1.000000" stroke="none" 
	d="
M649.427002,404.025116 
	C647.463928,400.323914 644.206360,398.966187 641.315979,400.699005 
	C639.229858,401.949738 637.556396,405.201172 637.211731,407.763763 
	C636.550659,412.678070 636.992310,417.737427 636.923523,422.735901 
	C636.880737,425.848663 635.977112,428.570374 632.305115,428.660004 
	C628.190979,428.760468 628.128540,425.460907 628.092834,422.632996 
	C627.987671,414.302551 628.066772,405.969910 628.055969,397.638123 
	C628.050781,393.651947 629.966553,392.068176 633.977112,392.081360 
	C637.751526,392.093750 641.521240,391.230804 645.305176,391.096863 
	C654.116394,390.785004 658.757141,395.151855 658.938782,403.936829 
	C659.076538,410.599091 658.991394,417.267578 658.910522,423.932129 
	C658.872681,427.053070 657.867371,429.731567 654.131897,429.636810 
	C650.466797,429.543732 650.171326,426.624268 650.077942,423.876556 
	C649.857666,417.389984 649.734680,410.900085 649.427002,404.025116 
z"/>
<path fill="#1D1D1B" opacity="1.000000" stroke="none" 
	d="
M534.996460,415.951782 
	C534.992004,417.941284 535.009644,419.440002 534.979431,420.937744 
	C534.831299,428.278778 533.513916,429.259277 526.402588,427.669159 
	C525.405518,427.446228 524.212097,427.930634 523.144958,428.218842 
	C513.291931,430.879883 503.241638,427.626312 503.959747,414.887329 
	C504.287201,409.078888 504.009277,403.237183 504.038300,397.410736 
	C504.054199,394.218353 504.423309,391.194885 508.684448,391.215057 
	C512.784363,391.234467 512.901550,394.267273 512.947144,397.181366 
	C513.030518,402.507477 512.989746,407.835358 513.039917,413.162170 
	C513.073486,416.732666 513.822998,419.987366 518.081421,420.554749 
	C521.892883,421.062561 525.421814,418.050934 525.731567,413.619995 
	C526.137207,407.817993 525.965210,401.976715 526.084595,396.153229 
	C526.155640,392.690033 527.965454,390.405975 531.371704,391.475281 
	C532.930359,391.964600 534.652222,394.682220 534.776917,396.494080 
	C535.210205,402.791443 534.976562,409.134705 534.996460,415.951782 
z"/>
<path fill="#1D1D1B" opacity="1.000000" stroke="none" 
	d="
M258.003113,419.862061 
	C257.864288,422.326721 258.307495,424.641663 257.424255,426.209137 
	C256.548828,427.762695 254.384018,429.318115 252.693695,429.424347 
	C251.592575,429.493561 249.409836,427.045471 249.299286,425.603394 
	C248.854980,419.807220 249.090164,413.962250 248.957382,408.137970 
	C248.834030,402.727234 246.866974,400.287720 242.764038,400.164734 
	C238.492203,400.036652 236.209061,402.701904 236.087280,408.174225 
	C235.976166,413.166901 236.055206,418.163788 235.946487,423.156586 
	C235.882004,426.117126 234.720200,428.543121 231.397842,428.646454 
	C227.759323,428.759613 227.130173,425.954712 227.104416,423.143005 
	C227.025116,414.486633 226.874313,405.820282 227.251144,397.179565 
	C227.325043,395.485077 229.449738,392.701843 230.951355,392.464661 
	C235.811035,391.697205 240.835602,392.060333 245.769745,391.657959 
	C253.693405,391.011871 257.047302,396.752686 257.834808,403.912994 
	C258.395966,409.014740 257.982544,414.223694 258.003113,419.862061 
z"/>
<path fill="#1D1D1B" opacity="1.000000" stroke="none" 
	d="
M117.027298,399.129578 
	C115.799477,400.733521 114.330467,402.162903 114.196480,403.708038 
	C113.852699,407.672089 114.022697,411.689972 114.140587,415.681763 
	C114.224823,418.534241 115.480141,420.131622 118.698891,420.479401 
	C120.149338,420.636078 122.615997,422.753174 122.495346,423.713745 
	C122.246010,425.698914 121.026329,428.405090 119.402611,429.225830 
	C113.048492,432.437744 105.652695,427.993805 105.150452,420.895111 
	C104.857285,416.751404 105.014641,412.574280 105.010475,408.412140 
	C105.006340,404.272247 105.298531,400.419006 100.866379,397.531342 
	C98.054008,395.699066 98.462158,392.449371 101.647835,390.071686 
	C103.100563,388.987427 103.836823,386.992950 105.119720,385.618195 
	C106.567520,384.066711 108.134445,381.911621 109.901436,381.636475 
	C110.989548,381.467072 112.605110,384.275970 113.880798,385.832062 
	C115.233604,387.482269 116.386925,389.298767 117.772331,390.918671 
	C118.943771,392.288361 120.322342,393.480896 121.609253,394.751831 
	C120.204239,396.170441 118.799225,397.589081 117.027298,399.129578 
z"/>
<path fill="#1D1D1B" opacity="1.000000" stroke="none" 
	d="
M565.789246,425.000244 
	C565.387024,419.939789 565.115906,415.204071 565.005249,410.464600 
	C564.891052,405.571655 565.922913,400.471069 560.777283,396.989807 
	C560.038086,396.489716 560.379089,393.525574 561.020203,392.049194 
	C562.069519,389.632721 563.618713,387.378204 565.256714,385.290527 
	C566.479187,383.732513 568.030273,381.782318 569.710510,381.464935 
	C570.808044,381.257568 572.453735,383.603180 573.754089,384.904968 
	C575.467407,386.620178 577.136230,388.386993 578.721802,390.220093 
	C579.818420,391.487915 581.627991,392.981567 581.519897,394.236572 
	C581.383545,395.819855 579.877502,398.212372 578.508301,398.584351 
	C574.748413,399.605927 573.921204,401.931702 574.003052,405.260437 
	C574.076660,408.256195 574.064392,411.256134 574.005615,414.252563 
	C573.937622,417.712677 574.677795,420.262482 578.666748,421.397064 
	C580.014954,421.780548 581.511475,424.606750 581.402893,426.212708 
	C581.315674,427.503540 579.049072,429.417572 577.505615,429.694183 
	C572.988098,430.503784 568.947083,429.104889 565.789246,425.000244 
z"/>
<path fill="#1D1D1B" opacity="1.000000" stroke="none" 
	d="
M220.598618,393.308594 
	C220.936890,397.021301 219.207596,398.665985 216.047623,398.903778 
	C210.787048,399.299652 208.930405,402.390045 208.998001,407.293182 
	C209.069122,412.451416 208.985809,417.612366 208.925507,422.771606 
	C208.885834,426.167450 207.675049,428.685638 203.801636,428.790863 
	C199.495514,428.907806 199.105011,425.778625 199.076889,422.654602 
	C198.998962,414.000305 199.069412,405.344788 199.040985,396.689880 
	C199.028000,392.739807 200.809250,390.932190 204.868347,391.087067 
	C207.141113,391.173767 209.433167,390.601837 211.723679,390.414215 
	C214.960526,390.149017 218.476532,389.017822 220.598618,393.308594 
z"/>
<path fill="#1D1D1B" opacity="1.000000" stroke="none" 
	d="
M552.448059,426.015991 
	C550.629089,427.095276 548.635864,428.689484 547.357849,428.241821 
	C545.943542,427.746307 544.330078,425.409760 544.279724,423.827881 
	C543.987976,414.679138 544.068726,405.515869 544.164673,396.358978 
	C544.196594,393.311066 545.823914,390.787750 549.024536,391.516388 
	C550.596497,391.874237 552.705994,394.526642 552.747437,396.186127 
	C552.991882,405.993500 552.700317,415.814240 552.448059,426.015991 
z"/>
<path fill="#1D1D1B" opacity="1.000000" stroke="none" 
	d="
M312.044922,198.563751 
	C312.390472,200.402283 312.952728,202.697433 312.954956,204.993118 
	C312.993286,244.076004 312.962219,283.158936 312.934570,322.730011 
	C312.585693,321.444305 311.955902,319.670685 311.954712,317.896637 
	C311.928375,278.271332 311.971222,238.645966 312.044922,198.563751 
z"/>
<path fill="#1D1D1B" opacity="1.000000" stroke="none" 
	d="
M546.130737,386.033661 
	C545.547729,385.640320 545.089539,385.444244 545.073181,385.216461 
	C544.903992,382.856415 544.012939,380.070526 544.965515,378.274475 
	C545.607056,377.064880 550.263733,376.320251 550.715210,376.990448 
	C552.003296,378.902588 552.797058,381.766205 552.422974,384.030457 
	C551.899902,387.196869 549.064819,387.084839 546.130737,386.033661 
z"/>
<path fill="#000000" opacity="1.000000" stroke="none" 
	d="
M644.992432,67.983231 
	C645.012756,63.494232 645.042114,59.501163 645.050598,55.508049 
	C645.057800,52.133774 646.529907,50.096062 650.091919,50.087631 
	C657.744446,50.069511 665.407288,49.865932 673.046448,50.192356 
	C678.878723,50.441566 684.802856,55.945229 685.784180,61.253670 
	C687.232117,69.085907 684.409119,75.345184 678.799438,78.713150 
	C669.111877,84.529465 658.694946,81.335709 648.578613,81.534355 
	C647.454834,81.556412 645.590759,79.019661 645.275879,77.430656 
	C644.703430,74.541534 645.036987,71.472878 644.992432,67.983231 
z"/>
<path fill="#000000" opacity="1.000000" stroke="none" 
	d="
M540.851929,233.262634 
	C544.096619,246.077713 537.847107,254.617142 525.244019,254.934875 
	C519.098511,255.089798 512.945251,254.908371 506.796356,254.965179 
	C502.852814,255.001617 500.996979,253.172256 501.025391,249.218430 
	C501.079163,241.739777 501.076721,234.260239 501.027466,226.781525 
	C501.001465,222.833755 502.865051,220.986786 506.801636,221.022766 
	C512.784241,221.077469 518.774841,220.861465 524.748962,221.095215 
	C532.043884,221.380630 538.784546,226.520111 540.851929,233.262634 
z"/>
<path fill="#000000" opacity="1.000000" stroke="none" 
	d="
M481.930237,407.678223 
	C484.003143,409.992645 487.495850,412.851288 486.987335,414.189453 
	C486.085968,416.561371 482.892639,418.241821 480.377045,419.739105 
	C479.251770,420.408813 477.445251,419.994751 475.949554,419.970612 
	C470.229340,419.878296 469.035370,418.721191 469.024017,413.360809 
	C469.012787,408.040680 470.135712,406.996338 476.094757,407.053223 
	C477.913727,407.070587 479.730072,407.368225 481.930237,407.678223 
z"/>
<path fill="#000000" opacity="1.000000" stroke="none" 
	d="
M469.430969,388.656006 
	C472.967712,385.477448 480.073364,384.894775 482.597046,387.924774 
	C483.927521,389.522217 484.666107,393.184174 483.734436,394.789276 
	C481.284943,399.009186 476.599701,398.259216 472.543793,397.654907 
	C468.760376,397.091156 469.080536,393.826721 469.072235,391.006439 
	C469.070312,390.352051 469.216461,389.697235 469.430969,388.656006 
z"/>
<path fill="#000000" opacity="1.000000" stroke="none" 
	d="
M166.940399,405.278839 
	C162.939270,400.019318 168.179718,397.152008 169.906815,393.158264 
	C170.753174,395.278595 171.592819,397.401672 172.447144,399.518768 
	C174.956207,405.736603 174.326660,406.462067 166.940399,405.278839 
z"/>
<path fill="#000000" opacity="1.000000" stroke="none" 
	d="
M327.757935,400.539124 
	C327.333801,401.428741 326.784332,402.634735 326.143219,402.685577 
	C323.409088,402.902435 320.647827,402.777832 317.596130,402.777832 
	C319.764740,397.754059 322.585846,397.256714 327.757935,400.539124 
z"/>
<path fill="#000000" opacity="1.000000" stroke="none" 
	d="
M603.624634,402.854736 
	C601.988892,402.768677 600.719360,402.678192 599.449768,402.587708 
	C599.250549,402.116272 599.051331,401.644836 598.852112,401.173370 
	C600.785034,400.151154 602.700745,398.363861 604.655579,398.320099 
	C606.642883,398.275604 608.668701,399.949615 610.677612,400.871124 
	C610.505005,401.530853 610.332397,402.190582 610.159790,402.850311 
	C608.103455,402.850311 606.047119,402.850311 603.624634,402.854736 
z"/>
<path fill="#000000" opacity="1.000000" stroke="none" 
	d="
M76.256195,413.108459 
	C77.765450,413.102753 79.017265,412.833649 80.075851,413.170990 
	C81.620491,413.663177 83.026253,414.591248 84.491226,415.333496 
	C83.545105,416.942017 82.714340,419.814240 81.630371,419.913177 
	C78.806915,420.170959 75.003288,420.155182 73.205307,418.497406 
	C71.025925,416.487915 73.016434,413.990479 76.256195,413.108459 
z"/>
</svg>