<?xml version="1.0" encoding="UTF-8"?>
<svg xmlns="http://www.w3.org/2000/svg" width="1286" height="462" viewBox="0 0 1286 462">
  <path fill="#1d1d1b" fill-rule="evenodd" d="M 437.00 152.50 L 419.00 152.50 L 405.00 148.50 L 394.00 142.50 L 379.50 127.00 L 373.50 115.00 L 369.50 101.00 L 369.50 73.00 L 372.50 62.00 L 378.50 49.00 L 392.00 33.50 L 404.00 26.50 L 417.00 22.50 L 441.00 22.50 L 460.00 30.50 L 469.50 39.00 L 474.50 46.00 L 480.50 62.00 L 477.00 64.50 L 459.00 64.50 L 453.50 61.00 L 451.50 56.00 L 445.00 49.50 L 434.00 44.50 L 424.00 44.50 L 411.00 49.50 L 399.50 63.00 L 395.50 75.00 L 395.50 99.00 L 401.50 115.00 L 412.00 125.50 L 421.00 129.50 L 434.00 129.50 L 443.00 126.50 L 451.50 118.00 L 453.50 113.00 L 457.00 109.50 L 479.00 109.50 L 480.50 111.00 L 475.50 127.00 L 461.00 143.50 L 449.00 149.50 L 437.00 152.50 Z M 845.00 152.50 L 827.00 152.50 L 819.00 150.50 L 809.00 146.50 L 800.00 140.50 L 785.50 123.00 L 777.50 99.00 L 777.50 75.00 L 781.50 60.00 L 786.50 50.00 L 801.00 33.50 L 815.00 25.50 L 825.00 22.50 L 850.00 22.50 L 865.00 28.50 L 879.50 41.00 L 885.50 51.00 L 888.50 60.00 L 886.00 64.50 L 867.00 64.50 L 862.50 62.00 L 860.50 57.00 L 851.00 47.50 L 842.00 44.50 L 832.00 44.50 L 819.00 49.50 L 811.50 57.00 L 806.50 67.00 L 803.50 78.00 L 803.50 96.00 L 809.50 114.00 L 813.50 120.00 L 820.00 125.50 L 829.00 129.50 L 843.00 129.50 L 854.00 124.50 L 865.00 109.50 L 887.00 109.50 L 888.50 111.00 L 886.50 121.00 L 881.50 131.00 L 873.00 140.50 L 860.00 148.50 L 845.00 152.50 Z M 143.00 150.50 L 61.00 150.50 L 58.50 148.00 L 58.50 27.00 L 61.00 24.50 L 144.00 24.50 L 145.50 26.00 L 145.50 45.00 L 144.00 46.50 L 86.00 46.50 L 83.50 49.00 L 83.50 73.00 L 86.00 75.50 L 138.00 75.50 L 139.50 77.00 L 139.50 96.00 L 138.00 97.50 L 86.00 97.50 L 83.50 100.00 L 83.50 125.00 L 86.00 127.50 L 143.00 127.50 L 144.50 129.00 L 144.50 149.00 L 143.00 150.50 Z M 249.00 150.50 L 166.00 150.50 L 164.50 149.00 L 164.50 26.00 L 166.00 24.50 L 189.00 24.50 L 190.50 26.00 L 190.50 126.00 L 192.00 127.50 L 249.00 127.50 L 250.50 129.00 L 250.50 149.00 L 249.00 150.50 Z M 352.00 150.50 L 269.00 150.50 L 267.50 149.00 L 267.50 26.00 L 269.00 24.50 L 352.00 24.50 L 354.50 27.00 L 354.50 44.00 L 352.00 46.50 L 294.00 46.50 L 292.50 48.00 L 292.50 73.00 L 295.00 75.50 L 347.00 75.50 L 348.50 77.00 L 348.50 95.00 L 346.00 97.50 L 294.00 97.50 L 292.50 99.00 L 292.50 126.00 L 294.00 127.50 L 352.00 127.50 L 353.50 129.00 L 354.50 148.00 L 352.00 150.50 Z M 555.00 150.50 L 531.00 150.50 L 529.50 149.00 L 529.50 48.00 L 528.00 46.50 L 491.00 46.50 L 489.50 45.00 L 489.50 26.00 L 491.00 24.50 L 596.00 24.50 L 597.50 26.00 L 597.50 45.00 L 596.00 46.50 L 559.00 46.50 L 556.50 49.00 L 556.50 149.00 L 555.00 150.50 Z M 713.00 150.50 L 687.00 150.50 L 655.00 103.50 L 642.00 103.50 L 640.50 105.00 L 640.50 149.00 L 639.00 150.50 L 617.00 150.50 L 615.50 149.00 L 615.50 26.00 L 617.00 24.50 L 677.00 24.50 L 696.00 31.50 L 705.50 41.00 L 711.50 57.00 L 711.50 72.00 L 708.50 82.00 L 700.00 93.50 L 686.00 100.50 L 683.50 104.00 L 713.50 146.00 L 714.50 149.00 L 713.00 150.50 Z M 757.00 150.50 L 734.00 150.50 L 732.50 149.00 L 732.50 26.00 L 734.00 24.50 L 757.00 24.50 L 758.50 26.00 L 758.50 149.00 L 757.00 150.50 Z M 932.00 150.50 L 909.00 150.50 L 907.50 149.00 L 907.50 26.00 L 909.00 24.50 L 932.00 24.50 L 933.50 26.00 L 933.50 149.00 L 932.00 150.50 Z M 1018.00 150.50 L 995.00 150.50 L 993.50 149.00 L 993.50 48.00 L 992.00 46.50 L 953.00 46.50 L 951.50 45.00 L 951.50 26.00 L 953.00 24.50 L 1059.00 24.50 L 1060.50 26.00 L 1060.50 45.00 L 1059.00 46.50 L 1021.00 46.50 L 1019.50 48.00 L 1019.50 149.00 L 1018.00 150.50 Z M 1140.00 150.50 L 1118.00 150.50 L 1116.50 149.00 L 1116.50 103.00 L 1072.50 29.00 L 1071.50 26.00 L 1073.00 24.50 L 1098.00 24.50 L 1125.50 73.00 L 1129.00 76.50 L 1134.50 70.00 L 1154.50 33.00 L 1161.00 24.50 L 1185.00 24.50 L 1186.50 26.00 L 1141.50 103.00 L 1141.50 149.00 L 1140.00 150.50 Z M 672.50 82.00 L 681.00 78.50 L 686.50 70.00 L 686.50 57.00 L 684.50 54.00 L 675.00 46.50 L 643.00 46.50 L 641.50 48.00 L 641.50 80.00 L 644.00 82.50 L 672.50 82.00 Z M 122.00 323.50 L 99.00 323.50 L 77.00 313.50 L 60.50 295.00 L 53.50 275.00 L 52.50 248.00 L 56.50 231.00 L 61.50 221.00 L 65.50 215.00 L 79.00 202.50 L 97.00 194.50 L 122.00 193.50 L 131.00 195.50 L 139.00 199.50 L 147.00 204.50 L 153.50 211.00 L 159.50 221.00 L 163.50 233.00 L 162.00 236.50 L 139.00 236.50 L 133.50 226.00 L 128.00 220.50 L 120.00 216.50 L 109.00 215.50 L 95.00 220.50 L 82.50 235.00 L 78.50 253.00 L 79.50 273.00 L 86.50 289.00 L 97.00 298.50 L 104.00 300.50 L 122.00 299.50 L 128.00 296.50 L 133.50 291.00 L 139.00 281.50 L 162.00 281.50 L 163.50 283.00 L 158.50 298.00 L 145.00 313.50 L 131.00 321.50 L 122.00 323.50 Z M 768.00 323.50 L 745.00 323.50 L 727.00 317.50 L 722.00 314.50 L 711.50 304.00 L 705.50 291.00 L 708.00 286.50 L 730.00 286.50 L 743.00 299.50 L 756.00 303.50 L 762.00 303.50 L 772.00 300.50 L 779.50 292.00 L 779.50 282.00 L 774.00 275.50 L 767.00 272.50 L 734.00 265.50 L 720.00 257.50 L 710.50 245.00 L 709.50 224.00 L 712.50 216.00 L 723.00 203.50 L 738.00 195.50 L 767.00 194.50 L 778.00 197.50 L 787.00 202.50 L 792.00 207.50 L 797.50 213.00 L 802.50 222.00 L 803.50 229.00 L 802.00 230.50 L 780.00 230.50 L 775.50 223.00 L 769.00 217.50 L 760.00 214.50 L 750.00 214.50 L 739.00 218.50 L 734.50 225.00 L 734.50 235.00 L 741.00 241.50 L 748.00 244.50 L 770.00 248.50 L 785.00 253.50 L 797.50 264.00 L 802.50 273.00 L 803.50 294.00 L 797.50 307.00 L 784.00 318.50 L 768.00 323.50 Z M 297.00 322.50 L 274.00 322.50 L 271.50 320.00 L 218.50 201.00 L 217.50 197.00 L 219.00 195.50 L 242.00 195.50 L 244.50 198.00 L 298.50 319.00 L 297.00 322.50 Z M 440.00 322.50 L 420.00 322.50 L 418.50 321.00 L 418.50 243.00 L 417.00 241.50 L 402.50 278.00 L 388.50 319.00 L 385.00 322.50 L 371.00 322.50 L 368.50 320.00 L 347.50 266.00 L 346.50 260.00 L 339.00 244.50 L 337.50 246.00 L 337.50 321.00 L 336.00 322.50 L 315.00 322.50 L 312.50 320.00 L 312.50 198.00 L 315.00 195.50 L 343.00 195.50 L 344.50 197.00 L 363.50 246.00 L 364.50 252.00 L 378.00 283.50 L 380.50 281.00 L 410.50 198.00 L 413.00 195.50 L 441.00 195.50 L 442.50 197.00 L 442.50 320.00 L 440.00 322.50 Z M 496.00 322.50 L 473.00 322.50 L 471.50 321.00 L 471.50 197.00 L 473.00 195.50 L 533.00 195.50 L 546.00 199.50 L 553.00 203.50 L 561.50 212.00 L 566.50 223.00 L 567.50 246.00 L 564.50 256.00 L 560.50 263.00 L 555.00 268.50 L 542.00 275.50 L 527.00 278.50 L 499.00 278.50 L 497.50 280.00 L 497.50 321.00 L 496.00 322.50 Z M 650.00 323.50 L 626.00 323.50 L 617.00 321.50 L 605.00 315.50 L 592.50 303.00 L 586.50 289.00 L 584.50 278.00 L 584.50 197.00 L 586.00 195.50 L 610.00 195.50 L 611.50 197.00 L 611.50 279.00 L 615.50 290.00 L 623.00 297.50 L 630.00 300.50 L 649.00 299.50 L 653.00 297.50 L 660.50 289.00 L 664.50 275.00 L 664.50 197.00 L 666.00 195.50 L 689.00 195.50 L 690.50 197.00 L 689.50 286.00 L 682.50 303.00 L 673.00 313.50 L 663.00 319.50 L 650.00 323.50 Z M 529.50 255.00 L 536.00 252.50 L 541.50 244.00 L 542.50 233.00 L 539.50 225.00 L 536.00 221.50 L 526.00 217.50 L 499.00 218.50 L 497.50 220.00 L 497.50 254.00 L 499.00 255.50 L 529.50 255.00 Z M 193.00 322.50 L 170.00 322.50 L 168.50 319.00 L 197.50 255.00 L 199.00 253.50 L 223.00 253.50 L 224.50 256.00 L 211.50 283.00 L 198.50 315.00 L 193.00 322.50 Z M 293.00 426.50 L 289.50 425.00 L 289.50 400.00 L 287.00 396.50 L 278.00 396.50 L 273.50 400.00 L 272.50 424.00 L 271.00 425.50 L 267.50 424.00 L 267.50 377.00 L 269.00 375.50 L 272.50 377.00 L 272.50 393.00 L 274.00 394.50 L 280.00 391.50 L 288.00 391.50 L 294.50 398.00 L 294.50 425.00 L 293.00 426.50 Z M 548.00 383.50 L 543.50 380.00 L 546.00 376.50 L 549.50 378.00 L 549.50 382.00 L 548.00 383.50 Z M 187.00 425.50 L 182.50 423.00 L 180.50 415.00 L 177.00 410.50 L 158.00 410.50 L 152.50 424.00 L 151.00 425.50 L 147.50 424.00 L 159.50 390.00 L 166.00 377.50 L 170.00 377.50 L 172.50 381.00 L 188.50 422.00 L 187.00 425.50 Z M 483.00 425.50 L 462.00 425.50 L 460.50 424.00 L 460.50 380.00 L 462.00 378.50 L 482.00 378.50 L 487.00 380.50 L 490.50 385.00 L 490.50 395.00 L 486.50 399.00 L 486.50 401.00 L 491.50 406.00 L 491.50 418.00 L 483.00 425.50 Z M 117.00 426.50 L 112.00 426.50 L 106.50 422.00 L 105.50 397.00 L 99.50 394.00 L 99.50 392.00 L 105.50 388.00 L 105.50 384.00 L 108.00 381.50 L 110.50 384.00 L 110.50 390.00 L 118.50 393.00 L 117.00 395.50 L 112.00 395.50 L 110.50 397.00 L 110.50 418.00 L 114.00 421.50 L 118.00 420.50 L 119.50 422.00 L 117.00 426.50 Z M 577.00 426.50 L 572.00 426.50 L 568.00 424.50 L 564.50 419.00 L 565.50 397.00 L 562.00 395.50 L 560.50 393.00 L 565.50 390.00 L 565.50 384.00 L 568.00 381.50 L 570.50 383.00 L 570.50 388.00 L 573.00 390.50 L 577.00 390.50 L 578.50 392.00 L 577.00 395.50 L 572.00 395.50 L 570.50 397.00 L 570.50 418.00 L 573.00 421.50 L 576.00 420.50 L 578.50 423.00 L 577.00 426.50 Z M 479.50 398.00 L 485.50 394.00 L 485.50 387.00 L 480.00 382.50 L 467.00 382.50 L 465.50 384.00 L 465.50 397.00 L 467.00 398.50 L 479.50 398.00 Z M 174.50 406.00 L 175.50 402.00 L 172.50 397.00 L 171.50 391.00 L 168.00 386.50 L 164.50 392.00 L 160.50 405.00 L 162.00 406.50 L 174.50 406.00 Z M 421.00 425.50 L 411.00 425.50 L 402.50 417.00 L 404.00 415.50 L 408.00 415.50 L 414.00 420.50 L 420.00 420.50 L 424.50 416.00 L 424.50 414.00 L 421.00 410.50 L 409.00 407.50 L 403.50 402.00 L 404.50 394.00 L 409.00 390.50 L 416.00 388.50 L 423.00 390.50 L 428.50 397.00 L 424.00 398.50 L 420.00 394.50 L 416.00 393.50 L 411.00 394.50 L 408.50 397.00 L 408.50 401.00 L 411.00 403.50 L 424.00 407.50 L 429.50 414.00 L 428.50 420.00 L 421.00 425.50 Z M 89.00 426.50 L 84.00 424.50 L 81.00 426.50 L 71.00 426.50 L 64.50 421.00 L 63.50 413.00 L 69.00 406.50 L 84.00 406.50 L 85.50 405.00 L 85.50 399.00 L 82.00 395.50 L 75.00 395.50 L 70.00 399.50 L 67.00 399.50 L 65.50 397.00 L 70.00 392.50 L 80.00 390.50 L 86.00 392.50 L 89.50 396.00 L 90.50 425.00 L 89.00 426.50 Z M 204.00 425.50 L 199.50 424.00 L 199.50 393.00 L 203.00 391.50 L 207.00 393.50 L 210.00 390.50 L 216.00 390.50 L 217.50 393.00 L 215.00 395.50 L 210.00 395.50 L 205.50 400.00 L 205.50 424.00 L 204.00 425.50 Z M 253.00 426.50 L 249.50 425.00 L 249.50 402.00 L 245.00 396.50 L 236.00 396.50 L 232.50 400.00 L 232.50 424.00 L 231.00 425.50 L 227.50 424.00 L 227.50 394.00 L 229.00 392.50 L 236.00 393.50 L 246.00 390.50 L 252.50 396.00 L 254.50 400.00 L 254.50 425.00 L 253.00 426.50 Z M 325.00 426.50 L 318.00 426.50 L 314.00 424.50 L 308.50 419.00 L 305.50 410.00 L 305.50 406.00 L 309.50 397.00 L 314.00 392.50 L 321.00 390.50 L 328.00 391.50 L 334.50 398.00 L 336.50 404.00 L 336.50 407.00 L 334.00 409.50 L 313.00 409.50 L 311.50 411.00 L 312.50 416.00 L 318.00 421.50 L 325.00 421.50 L 332.00 415.50 L 334.50 417.00 L 333.50 421.00 L 330.00 424.50 L 325.00 426.50 Z M 389.00 425.50 L 385.50 422.00 L 385.50 399.00 L 383.00 395.50 L 377.00 395.50 L 371.50 401.00 L 371.50 424.00 L 370.00 425.50 L 366.50 424.00 L 366.50 400.00 L 363.00 395.50 L 356.00 395.50 L 351.50 401.00 L 351.50 424.00 L 348.00 425.50 L 346.50 424.00 L 346.50 393.00 L 348.00 391.50 L 354.00 392.50 L 357.00 390.50 L 366.00 390.50 L 370.00 393.50 L 373.00 393.50 L 376.00 390.50 L 387.00 392.50 L 391.50 400.00 L 391.50 423.00 L 389.00 425.50 Z M 530.00 425.50 L 528.00 425.50 L 525.00 422.50 L 519.00 425.50 L 512.00 425.50 L 505.50 420.00 L 504.50 393.00 L 506.00 391.50 L 509.50 393.00 L 509.50 417.00 L 514.00 421.50 L 519.00 421.50 L 525.50 417.00 L 526.50 393.00 L 528.00 391.50 L 531.50 393.00 L 531.50 424.00 L 530.00 425.50 Z M 548.00 425.50 L 544.50 423.00 L 544.50 393.00 L 546.00 391.50 L 549.50 393.00 L 550.50 399.00 L 549.50 424.00 L 548.00 425.50 Z M 607.00 426.50 L 600.00 426.50 L 596.00 424.50 L 589.50 418.00 L 587.50 412.00 L 587.50 405.00 L 591.50 396.00 L 598.00 391.50 L 611.00 392.50 L 615.50 397.00 L 617.50 402.00 L 617.50 408.00 L 616.00 409.50 L 594.00 409.50 L 592.50 411.00 L 594.50 417.00 L 600.00 421.50 L 607.00 421.50 L 613.00 415.50 L 616.50 417.00 L 614.50 422.00 L 607.00 426.50 Z M 654.00 426.50 L 650.50 425.00 L 650.50 401.00 L 646.00 396.50 L 638.00 396.50 L 633.50 401.00 L 633.50 424.00 L 632.00 425.50 L 628.50 424.00 L 628.50 394.00 L 630.00 392.50 L 636.00 394.50 L 641.00 391.50 L 648.00 391.50 L 653.50 396.00 L 655.50 400.00 L 655.50 425.00 L 654.00 426.50 Z M 329.50 403.00 L 330.50 400.00 L 325.00 394.50 L 316.00 395.50 L 312.50 400.00 L 314.00 403.50 L 329.50 403.00 Z M 611.50 403.00 L 611.50 399.00 L 606.00 394.50 L 598.00 395.50 L 594.50 400.00 L 596.00 403.50 L 611.50 403.00 Z M 481.50 420.00 L 487.50 416.00 L 488.50 412.00 L 486.50 407.00 L 482.00 403.50 L 467.00 403.50 L 465.50 405.00 L 465.50 419.00 L 467.00 420.50 L 481.50 420.00 Z M 81.50 421.00 L 85.50 417.00 L 85.50 412.00 L 83.00 409.50 L 71.00 409.50 L 69.50 411.00 L 68.50 417.00 L 72.00 421.50 L 81.50 421.00 Z"/>
</svg>
